<?xml version="1.0" ?><svg data-name="Layer 1" id="Layer_1" viewBox="0 0 24 24" xmlns="http://www.w3.org/2000/svg"><defs><style>.cls-1,.cls-2{fill:none;stroke:#000;stroke-linecap:round;stroke-linejoin:round;}.cls-1{stroke-width:1px;}</style></defs><title/><path class="cls-1" d="M9.567,5.227a1.362,1.362,0,0,0-1.257.845,1.363,1.363,0,0,0-1.259-.845,1.487,1.487,0,0,0-1.36,1.5c0,1.644,2.27,2.982,2.619,2.982s2.619-1.338,2.619-2.982A1.487,1.487,0,0,0,9.567,5.227Z" data-name=" Path " id="_Path_"/><polyline class="cls-1" points="16.19 12 14.095 14.619 17.238 14.619 15.143 17.238"/><path class="cls-2" d="M15.62,7.156C15.207,4.281,12.1,2.048,8.333,2.048,4.283,2.048,1,4.627,1,7.81a5.23,5.23,0,0,0,2.213,4.12l.178,3.188,2.784-1.8q.288.069.583.121"/><path class="cls-2" d="M15.667,8.882c4.05,0,7.333,2.579,7.333,5.762a5.23,5.23,0,0,1-2.213,4.12l-.178,3.188-2.784-1.8a9.189,9.189,0,0,1-2.158.255c-4.05,0-7.334-2.58-7.334-5.762S11.617,8.882,15.667,8.882Z"/></svg>