<?xml version="1.0" ?><svg data-name="Layer 1" id="Layer_1" viewBox="0 0 24 24" xmlns="http://www.w3.org/2000/svg"><defs><style>.cls-1,.cls-2{fill:none;stroke:#000;stroke-linecap:round;}.cls-1{stroke-miterlimit:10;}.cls-2{stroke-linejoin:round;}</style></defs><title/><path class="cls-1" d="M19.446,15.013a8.491,8.491,0,1,1-2.038-9.122"/><path class="cls-1" d="M16.607,14.034a5.438,5.438,0,0,1-.672,1.215,5.5,5.5,0,1,1-1.189-7.687c.125.092.246.188.361.288"/><path class="cls-1" d="M13.514,13.477a2.5,2.5,0,1,1-.54-3.494"/><line class="cls-1" x1="16.229" x2="11.863" y1="10.914" y2="11.937"/><path class="cls-2" d="M20.317,9.956l1.586.984a.457.457,0,0,1-.136.833l-3.015.706-2.523-1.565,1.565-2.523,3.015-.706a.456.456,0,0,1,.492.685Z"/></svg>