<?xml version="1.0" ?><svg data-name="Layer 1" id="Layer_1" viewBox="0 0 24 24" xmlns="http://www.w3.org/2000/svg"><defs><style>.cls-1,.cls-2{fill:none;stroke:#000;stroke-linecap:round;stroke-linejoin:round;}.cls-1{fill-rule:evenodd;}</style></defs><title/><path class="cls-1" d="M11,19.5H4.5a2,2,0,0,1-2-2V6.5a2,2,0,0,1,2-2h15a2,2,0,0,1,2,2v11a2,2,0,0,1-1.607,1.961"/><rect class="cls-2" height="2" rx="0.5" ry="0.5" width="6" x="12.5" y="17.5"/><path class="cls-2" d="M13.1,9.441c-.03-.647.653-1.237,1.557-1.332.927-.1,1.735.365,1.805,1.031a1.014,1.014,0,0,1-.249.744l-2.724,3.469L16.844,13"/><path class="cls-2" d="M6.005,10.184c-.03-.647.653-1.238,1.557-1.332.927-.1,1.735.364,1.805,1.031a1.015,1.015,0,0,1-.249.744L6.394,14.1l3.357-.352"/><line class="cls-2" x1="11.46" x2="11.672" y1="10.492" y2="12.519"/><line class="cls-2" x1="10.553" x2="12.579" y1="11.612" y2="11.399"/></svg>