<?xml version="1.0" ?><svg data-name="Layer 1" id="Layer_1" viewBox="0 0 24 24" xmlns="http://www.w3.org/2000/svg"><defs><style>.cls-1,.cls-2{fill:none;stroke:#000;stroke-linecap:round;stroke-linejoin:round;}.cls-2{stroke-width:1px;}</style></defs><title/><path class="cls-1" d="M2.447,14.413l4.372-1.249a7.994,7.994,0,0,1,5.166.264l1.415.566a1.356,1.356,0,0,1,.826,1.525h0a1.355,1.355,0,0,1-1.658,1.049L9,15.675"/><path class="cls-1" d="M2.947,19.913l1.617-.539a3.525,3.525,0,0,1,2.688.191l2.139.894a3.612,3.612,0,0,0,3.054-.126l8.305-4.3a1.487,1.487,0,0,0,.7-1.872h0a1.487,1.487,0,0,0-1.788-.877l-4.012,1.147"/><path class="cls-2" d="M16.533,3.262A2.43,2.43,0,0,0,14.29,4.769a2.429,2.429,0,0,0-2.246-1.507A2.653,2.653,0,0,0,9.617,5.941c0,2.934,4.05,5.321,4.673,5.321s4.673-2.387,4.673-5.321A2.654,2.654,0,0,0,16.533,3.262Z" data-name=" Path " id="_Path_"/></svg>