<?xml version="1.0" ?><svg data-name="Layer 1" id="Layer_1" viewBox="0 0 24 24" xmlns="http://www.w3.org/2000/svg"><defs><style>.cls-1{fill:none;stroke:#000;stroke-linecap:round;stroke-linejoin:round;}</style></defs><title/><path class="cls-1" d="M20.362,13.14a2.342,2.342,0,0,1,0-2.28l.533-.844a1.082,1.082,0,0,0-.533-1.639l-.927-.37A2.341,2.341,0,0,1,18.1,6.163l-.065-1a1.083,1.083,0,0,0-1.395-1.013l-.967.245A2.336,2.336,0,0,1,13.5,3.7l-.638-.768a1.084,1.084,0,0,0-1.724,0L10.5,3.7a2.336,2.336,0,0,1-2.168.7l-.967-.245a1.083,1.083,0,0,0-1.4,1.013l-.065,1a2.341,2.341,0,0,1-1.34,1.844l-.927.37a1.082,1.082,0,0,0-.533,1.639l.533.844a2.342,2.342,0,0,1,0,2.28l-.533.844a1.082,1.082,0,0,0,.533,1.639l.927.37a2.341,2.341,0,0,1,1.34,1.845l.065.995a1.083,1.083,0,0,0,1.4,1.013l.967-.245a2.336,2.336,0,0,1,2.168.7l.638.768a1.084,1.084,0,0,0,1.724,0l.638-.768a2.336,2.336,0,0,1,2.168-.7l.967.245a1.083,1.083,0,0,0,1.395-1.013l.065-.995a2.341,2.341,0,0,1,1.34-1.845l.927-.37a1.082,1.082,0,0,0,.533-1.639Z"/><polyline class="cls-1" points="8.5 12 10.833 14.333 15.5 9.667"/></svg>