<?xml version="1.0" ?><svg data-name="Layer 1" id="Layer_1" viewBox="0 0 24 24" xmlns="http://www.w3.org/2000/svg"><defs><style>.cls-1{fill:none;stroke:#000;stroke-linecap:round;stroke-linejoin:round;}</style></defs><title/><line class="cls-1" x1="4.5" x2="21.5" y1="9.5" y2="9.5"/><path class="cls-1" d="M6.974,4.5H4.289A1.9,1.9,0,0,0,2.5,6.5v12a1.9,1.9,0,0,0,1.789,2H19.711a1.9,1.9,0,0,0,1.789-2V6.5a1.9,1.9,0,0,0-1.789-2H18.5"/><line class="cls-1" x1="16.5" x2="16.5" y1="2.5" y2="6.5"/><line class="cls-1" x1="7.5" x2="7.5" y1="2.5" y2="6.5"/><line class="cls-1" x1="9.5" x2="16.46" y1="4.5" y2="4.486"/><path class="cls-1" d="M7.25,13a.25.25,0,0,1,.5,0"/><path class="cls-1" d="M7.75,13a.25.25,0,0,1-.5,0"/><path class="cls-1" d="M12.25,13a.25.25,0,0,1-.5,0"/><path class="cls-1" d="M11.75,13a.25.25,0,0,1,.5,0"/><path class="cls-1" d="M16.75,13a.25.25,0,0,1-.5,0"/><path class="cls-1" d="M16.25,13a.25.25,0,0,1,.5,0"/><path class="cls-1" d="M7.75,17a.25.25,0,0,1-.5,0"/><path class="cls-1" d="M7.25,17a.25.25,0,0,1,.5,0"/><path class="cls-1" d="M12.25,17a.25.25,0,0,1-.5,0"/><path class="cls-1" d="M11.75,17a.25.25,0,0,1,.5,0"/><path class="cls-1" d="M16.75,17a.25.25,0,0,1-.5,0"/><path class="cls-1" d="M16.25,17a.25.25,0,0,1,.5,0"/></svg>