<?xml version="1.0" ?><svg viewBox="0 0 512 512" xmlns="http://www.w3.org/2000/svg"><defs><style>.cls-1{fill:#ff832f;}.cls-2{fill:#ffdb99;}.cls-3{fill:#ffb833;}.cls-4{fill:#d17352;}.cls-5,.cls-7{fill:#383333;}.cls-6{fill:#d89071;}.cls-7{fill-rule:evenodd;}.cls-8{fill:#fff;}.cls-9{fill:#fff3e3;}</style></defs><title/><g id="Finance"><rect class="cls-1" height="53.77" width="6.28" x="323.94" y="236.58"/><circle class="cls-1" cx="327.08" cy="292.18" r="11.43"/><rect class="cls-2" height="207.27" rx="5.97" width="287.68" x="183.24" y="44.64"/><rect class="cls-1" height="27.29" rx="7.03" width="323.29" x="165.43" y="31"/><path class="cls-3" d="M308.27,376a25.08,25.08,0,0,1,6.31,4.2,26.26,26.26,0,0,1,7.64,13.19A19.38,19.38,0,0,1,327,381.17a19.15,19.15,0,0,1,9.37-5.74,18,18,0,0,1-8.6-3.63,18.66,18.66,0,0,1-6.69-11.47,16.66,16.66,0,0,1-2.87,9A16.92,16.92,0,0,1,308.27,376Z"/><path class="cls-3" d="M331.63,389.24a8.62,8.62,0,0,1,2.13,1.42,8.9,8.9,0,0,1,2.58,4.45,6.37,6.37,0,0,1,4.76-6.06,6.06,6.06,0,0,1-2.9-1.22A6.25,6.25,0,0,1,336,384a5.53,5.53,0,0,1-1,3A5.64,5.64,0,0,1,331.63,389.24Z"/><path class="cls-3" d="M306.78,365.16a5.8,5.8,0,0,1,1.45,1,6,6,0,0,1,1.76,3,4.49,4.49,0,0,1,1.1-2.82,4.38,4.38,0,0,1,2.16-1.32,4.18,4.18,0,0,1-2-.84,4.29,4.29,0,0,1-1.54-2.65,3.75,3.75,0,0,1-3,3.62Z"/><path class="cls-3" d="M380.54,279.5a18.36,18.36,0,0,1,4.58,3.06,19.11,19.11,0,0,1,5.56,9.58,14.08,14.08,0,0,1,3.47-8.89,13.89,13.89,0,0,1,6.81-4.16,13.27,13.27,0,0,1-6.25-2.64,13.61,13.61,0,0,1-4.87-8.34,12,12,0,0,1-2.08,6.53A12.24,12.24,0,0,1,380.54,279.5Z"/><path class="cls-3" d="M397.52,289.12a6.19,6.19,0,0,1,3.41,4.26,4.64,4.64,0,0,1,3.47-4.4,4.37,4.37,0,0,1-2.11-.89,4.57,4.57,0,0,1-1.64-2.8,4,4,0,0,1-3.13,3.83Z"/><path class="cls-3" d="M379.45,271.62a4.17,4.17,0,0,1,1.06.7,4.42,4.42,0,0,1,1.28,2.21,3.17,3.17,0,0,1,2.37-3,2.9,2.9,0,0,1-1.44-.61A3.06,3.06,0,0,1,381.6,269a2.73,2.73,0,0,1-2.15,2.63Z"/><circle class="cls-1" cx="329.27" cy="143.54" r="70.77"/><circle class="cls-3" cx="321.16" cy="143.54" r="70.77"/><path class="cls-1" d="M337.77,114.06a10.52,10.52,0,0,0-.34-1.66c-1-3.67-5-12.08-19.47-10.76-18.46,1.67-13.09,28.19-13.09,36.58s15.44,3.81,18.8,7.16,3.52,29.54-2.71,32-4.45-22.82-5.79-23.94-11.08-3.13-11,1.34-3.31,28.64,7,31.78,23.35,2.68,24.88-4.48,1.3-39.83-1.61-44.53-16.33-3.8-17-6.94-1.34-18.34,4.7-17.9,3.66,16.11,5.19,17.23,9.36,3.14,10.48.45,1.24-12.31-.06-17"/><path class="cls-1" d="M316,92.76s-.63,12,0,12.38,8.8,1.77,9.74.52,1-11.65.63-12.9S316.12,90,316,92.76Z"/><path class="cls-1" d="M316,182.48s-.63,12,0,12.38,8.8,1.77,9.74.52,1-11.65.63-12.9S316.12,179.69,316,182.48Z"/><path class="cls-4" d="M71.82,156.08c-.73-.73-4.73-4.57-10.51-4.21-.84,0-4.2.26-6.5,2.36C48.88,159.66,50.93,177,61,181.62c5.64,2.55,11.7.16,13.74-.76Q73.3,168.47,71.82,156.08Z"/><path class="cls-5" d="M65.15,176.28a.38.38,0,0,1-.26-.11c-2.5-2.47-3.62-5-3.32-7.58.36-3.11,2.73-5.4,4.13-6.51l-8.55.3a.38.38,0,0,1-.39-.37.36.36,0,0,1,.36-.38l9.8-.35a.41.41,0,0,1,.38.27.39.39,0,0,1-.17.43s-4.35,2.69-4.82,6.71c-.27,2.31.78,4.65,3.11,6.95a.38.38,0,0,1,0,.53A.39.39,0,0,1,65.15,176.28Z"/><path class="cls-4" d="M187.65,157.37c.75-.72,4.83-4.47,10.6-4,.84.07,4.2.35,6.44,2.5,5.82,5.56,3.38,22.9-6.83,27.25-5.7,2.43-11.7-.1-13.72-1.07Z"/><path class="cls-5" d="M193.88,177.71a.39.39,0,0,1-.28-.12.38.38,0,0,1,0-.53c2.38-2.25,3.47-4.56,3.26-6.88-.38-4-4.63-6.78-4.67-6.81a.37.37,0,0,1-.16-.43.37.37,0,0,1,.38-.26l9.79.56a.38.38,0,0,1,.36.39.39.39,0,0,1-.4.36l-8.55-.49c1.38,1.14,3.7,3.48,4,6.61.25,2.56-.93,5.08-3.49,7.49A.36.36,0,0,1,193.88,177.71Z"/><circle class="cls-6" cx="130.04" cy="142.78" r="68.04"/><path class="cls-6" d="M115.07,194.62s.94,36.48-7.94,45.84S71.87,252.9,63.56,271s19,84.64-2.05,184.7a157.77,157.77,0,0,0,45.81,18.36c54.08,12.24,99.25-8.19,115.58-16.61a327.35,327.35,0,0,1-10.33-73c-1.83-68.22,18.21-106.36-2.63-127.67-15-15.36-39.43-7.53-50.4-22.85S150,188.59,150,188.59,134.16,178.29,115.07,194.62Z"/><path class="cls-6" d="M63.6,158.73s13.32,68.35,66.33,66.76,66.64-54.77,68-86.37C198,139.12,111.64,76,63.6,158.73Z"/><path class="cls-6" d="M80.76,254.68a54,54,0,0,0-16.85,9.22c-15.84,12.9-19.8,32-22,43.58-11,57.07-18.38,109.71-20.6,126a59.11,59.11,0,0,0,35,21.78,299.13,299.13,0,0,0,11.22-30.56c6.21-20.24,9.33-36.39,12.25-57.25,3.35-24,1.46-30.46,10.86-48.16,0,0,18.08-34.7,12.22-49.41a14,14,0,0,0-.77-1.59C97.38,260,87.91,256.36,80.76,254.68Z"/><path class="cls-6" d="M185.9,246.46c8.39.31,21.68,2.07,33.13,10.89,11.76,9,12.88,18.83,29.32,69.23,8.18,25.1,18.24,54.35,18.24,54.35q-11.05,13.94-22.12,27.85a46.64,46.64,0,0,1-8.44-4.34c-3.36-2.2-10-7.18-18.52-21.47a149.05,149.05,0,0,1-8.71-17.41c-5.33-11.32-13.43-28.51-18.42-46.22C186.19,304.43,181.52,279.61,185.9,246.46Z"/><path class="cls-6" d="M267.6,286.11A436.88,436.88,0,0,1,242,341.7C233,358.17,226,368.26,227.57,382.87c1,9,5.52,22.69,15.65,26,6.74,2.23,13.35-1,15.77-2.14,26.19-12.68,34.65-107.63,35.79-121.22Z"/><path class="cls-5" d="M87.19,150.28a21.42,21.42,0,0,1,12.27-4c3-.08,7-.18,8.27,2.16a3.26,3.26,0,0,1-.08,3.29c-1.4,1.88-4.92.19-10.6.14-7.49-.06-12.35,2.78-12.85,1.71C83.85,152.79,86.25,151,87.19,150.28Z"/><path class="cls-5" d="M173.43,150.11a21.31,21.31,0,0,0-12.33-3.82c-3,0-7-.07-8.23,2.29a3.24,3.24,0,0,0,.13,3.29c1.43,1.86,4.92.11,10.6,0,7.48-.18,12.39,2.58,12.87,1.5C176.81,152.55,174.38,150.8,173.43,150.11Z"/><path class="cls-5" d="M129.15,178.92c-1.59,0-3-.1-3.52-.15a.5.5,0,0,1-.46-.54.5.5,0,0,1,.54-.45c3.76.31,9.32.13,9.88-1.23.64-1.54-2.28-9.42-4.27-14a.5.5,0,1,1,.91-.4c.55,1.26,5.3,12.36,4.29,14.8C135.83,178.58,132.11,178.92,129.15,178.92Z"/><ellipse class="cls-4" cx="90.23" cy="181.23" rx="5.17" ry="8.3" transform="translate(-92.42 268.54) rotate(-89.08)"/><ellipse class="cls-4" cx="167.95" cy="182.48" rx="5.17" ry="8.3" transform="translate(-17.19 347.48) rotate(-89.08)"/><path class="cls-7" d="M163.06,169.33a5.88,5.88,0,1,1-.52-8.29A5.9,5.9,0,0,1,163.06,169.33Z"/><path class="cls-7" d="M107.59,171.46a5.88,5.88,0,1,1,0-8.31A5.9,5.9,0,0,1,107.59,171.46Z"/><path class="cls-5" d="M131.27,202.32a13,13,0,0,1-5.75-1.37.38.38,0,0,1,.34-.67,11.89,11.89,0,0,0,5.8,1.28,12.14,12.14,0,0,0,5-1.29.36.36,0,0,1,.5.16.38.38,0,0,1-.16.51,12.77,12.77,0,0,1-5.34,1.37Z"/><path class="cls-8" d="M115.94,187.7l32.42-.55a17.78,17.78,0,0,1-17.94,11.64A17.55,17.55,0,0,1,115.94,187.7Z"/><path class="cls-3" d="M95,248s14.32,27.11,41.68,24.58,34.85-30.11,34.85-30.11a94.31,94.31,0,0,1,26.29,3.86c8.7,2.59,18.28,5.43,26.14,13.42,5.69,5.78,8,11.75,11.34,21.28,4.19,12,9.3,27.88,14.43,47a103.83,103.83,0,0,1-9.62,6.71,104.93,104.93,0,0,1-27.92,12c.51,11.77,1.38,24.05,2.7,36.78a605.32,605.32,0,0,0,13.1,77,168.46,168.46,0,0,1-50.67,17.89c-58.58,10.51-105.94-13.84-122.7-23.55,0,0,12.16-73.44,14.52-110.25a90.19,90.19,0,0,1-40-18.56,264.82,264.82,0,0,1,10.13-28.87c6.67-16,10-24.06,16.68-31.24C60.29,261.27,71.75,250.78,95,248Z"/><path class="cls-5" d="M69.11,345.12h0a.51.51,0,0,1-.46-.54c1.89-20.83-7.49-56.37-7.58-56.73a.5.5,0,0,1,.35-.61.51.51,0,0,1,.62.36c.09.36,9.52,36.06,7.61,57.07A.49.49,0,0,1,69.11,345.12Z"/><path class="cls-5" d="M212.16,347.24a.49.49,0,0,1-.49-.47c-1.8-29.11,4.93-65.94,5-66.31a.49.49,0,0,1,.58-.4.5.5,0,0,1,.4.58c-.07.37-6.77,37.08-5,66.07a.49.49,0,0,1-.46.53Z"/><path class="cls-5" d="M232.2,380.66a.51.51,0,0,1-.5-.49c0-.27-.2-27.52,18-51.47a.51.51,0,0,1,.7-.1.5.5,0,0,1,.1.7c-18,23.68-17.8,50.58-17.8,50.85a.49.49,0,0,1-.49.51Z"/><circle class="cls-9" cx="186.59" cy="309.82" r="22.09"/><path class="cls-6" d="M268.58,290.79s-4.17-13.75-2.64-22.36S273,256.06,273.72,255s.19-30.33,4.45-31.25,6.85,27,6.85,27,8.15-1.67,9.08,4.07c0,0,6.13-.37,6.3,6.12a5.61,5.61,0,0,1,3.19,1.11,6.85,6.85,0,0,1,2.22,4.72c.52,4.05-.06,33.17-16.11,35.56C278.68,304,269.25,291.68,268.58,290.79Z"/><path class="cls-5" d="M277.05,278.06H277a.36.36,0,0,1-.3-.43c.73-4-1.11-9.64-1.13-9.69a.38.38,0,0,1,.19-.46.37.37,0,0,1,.47.13c1.48,2.12,5.84,3.32,8.09,3.18.71,0,1.05-.22,1.12-.36.47-.89-.71-3.41-2-6.08-.43-.91-.88-1.87-1.3-2.84-1.69-3.85-8.49-6.17-8.56-6.19a.38.38,0,0,1-.23-.48.36.36,0,0,1,.47-.23c.29.09,7.19,2.44,9,6.6.43,1,.87,1.92,1.3,2.82,1.45,3.09,2.6,5.52,2,6.75-.24.44-.82.7-1.75.75a13.08,13.08,0,0,1-7.66-2.38,21.94,21.94,0,0,1,.73,8.61A.38.38,0,0,1,277.05,278.06Z"/><path class="cls-5" d="M280.58,259.21l-.11,0a.38.38,0,0,1-.24-.47c.75-2.41,4.32-8,4.48-8.19a.37.37,0,0,1,.51-.11.37.37,0,0,1,.11.52c0,.06-3.67,5.69-4.39,8A.37.37,0,0,1,280.58,259.21Z"/><path class="cls-5" d="M294.54,278h-.24a2.15,2.15,0,0,1-1.58-.79c-2.39-2.92,6.37-15.08,7.38-16.46a.38.38,0,1,1,.61.45c-3.68,5-8.94,13.67-7.41,15.54a1.44,1.44,0,0,0,1.06.51c2.91.21,8.47-4.68,8.53-4.73a.37.37,0,0,1,.53,0,.38.38,0,0,1,0,.53C303.16,273.23,297.79,278,294.54,278Z"/><path class="cls-5" d="M287.76,275.1a3,3,0,0,1-.43,0,2.46,2.46,0,0,1-1.72-1c-.35-.45-1.42-1.85,3.3-10.93,2.28-4.4,4.84-8.52,4.87-8.57a.38.38,0,0,1,.51-.12.37.37,0,0,1,.12.52c-3.9,6.26-9.57,16.86-8.2,18.65a1.74,1.74,0,0,0,1.21.67c2.33.3,6-2.57,6-2.59a.38.38,0,1,1,.47.59C293.77,272.44,290.36,275.1,287.76,275.1Z"/><path class="cls-5" d="M61.31,151.87s3.77,19.53,6.94,19.45-2.74-26.42,2.15-35.54,9.46-16.25,13.77-31.57S157.78,90.28,172,98.89s10.29,30.38,17.72,40.52-.63,28,1.4,30.78,11.86-19.72,13.55-42.34S185,77.87,168,70.44,140.87,43.77,130,50.18s-26.61,18.58-48.1,26S54,121.11,61.31,151.87Z"/><path class="cls-5" d="M129,225.2A101.26,101.26,0,0,1,113.2,224a.51.51,0,0,1-.41-.58.5.5,0,0,1,.59-.4c.22,0,23.22,4.05,39.92-2.84a.5.5,0,0,1,.65.28.49.49,0,0,1-.27.65C145.85,224.33,136.67,225.2,129,225.2Z"/><path class="cls-8" d="M66.94,122.1a.49.49,0,0,1-.44-.26.5.5,0,0,1,.19-.68c10-5.54,10.81-20.7,10.81-20.86a.48.48,0,0,1,.52-.47.5.5,0,0,1,.48.52c0,.65-.82,15.88-11.32,21.69A.53.53,0,0,1,66.94,122.1Z"/><path class="cls-8" d="M62,127.84a.5.5,0,0,1-.5-.48,24.2,24.2,0,0,1,6.73-17.62.5.5,0,0,1,.68.73,23.68,23.68,0,0,0-6.41,16.86.5.5,0,0,1-.48.51Z"/><path class="cls-8" d="M196,126.43a.45.45,0,0,1-.31-.11c-11-8.7-12-22.7-12-22.84a.5.5,0,0,1,.47-.53.48.48,0,0,1,.53.47c0,.13,1,13.7,11.63,22.12a.49.49,0,0,1,.08.7A.47.47,0,0,1,196,126.43Z"/><path class="cls-8" d="M198,139.62a.4.4,0,0,1-.15,0,.49.49,0,0,1-.33-.62c5.25-16.55-.52-23.89-.58-24a.51.51,0,0,1,.07-.71.5.5,0,0,1,.7.08c.26.31,6.17,7.83.77,24.89A.51.51,0,0,1,198,139.62Z"/><path class="cls-8" d="M131.58,93a.48.48,0,0,1-.39-.19.49.49,0,0,1,.07-.7c16.81-13.52,4.94-33.39,4.82-33.59a.5.5,0,1,1,.85-.52c.13.2,12.46,20.82-5,34.89A.51.51,0,0,1,131.58,93Z"/><path class="cls-8" d="M128.14,93a.49.49,0,0,1-.39-.8c5.55-7.28,0-17,0-17.14a.5.5,0,0,1,.87-.5c.06.11,5.92,10.43,0,18.24A.49.49,0,0,1,128.14,93Z"/><path class="cls-8" d="M139,93a.49.49,0,0,1-.43-.24.5.5,0,0,1,.16-.69c11.2-6.85,9.92-15.31,9.9-15.4a.51.51,0,0,1,.41-.58.51.51,0,0,1,.58.41c.06.37,1.44,9.2-10.36,16.43A.54.54,0,0,1,139,93Z"/></g></svg>