<?xml version="1.0" ?><svg viewBox="0 0 512 512" xmlns="http://www.w3.org/2000/svg"><defs><style>.cls-1{fill:#ffb833;}.cls-2{fill:#fff3e3;}.cls-3{fill:#ff535c;}.cls-4{fill:#d17352;}.cls-5,.cls-7{fill:#383333;}.cls-6{fill:#d89071;}.cls-7,.cls-9{fill-rule:evenodd;}.cls-8{fill:#fff;}.cls-9{fill:#635c5c;}</style></defs><title/><g id="Photographer"><path class="cls-1" d="M147.48,404.24a28,28,0,0,1,7.15,4.76,29.83,29.83,0,0,1,8.66,14.93,21.87,21.87,0,0,1,5.41-13.85,21.65,21.65,0,0,1,10.6-6.49,20.55,20.55,0,0,1-9.74-4.12,21.08,21.08,0,0,1-7.57-13,18.75,18.75,0,0,1-3.25,10.17A19.13,19.13,0,0,1,147.48,404.24Z"/><path class="cls-1" d="M397.57,404.46a21.5,21.5,0,0,1,5.47,3.65,22.75,22.75,0,0,1,6.62,11.42A16.35,16.35,0,0,1,421.9,404a15.63,15.63,0,0,1-7.44-3.15,16.18,16.18,0,0,1-5.8-9.93,14.23,14.23,0,0,1-2.48,7.78A14.56,14.56,0,0,1,397.57,404.46Z"/><path class="cls-1" d="M132.4,117.7a21.84,21.84,0,0,1,5.46,3.64,22.79,22.79,0,0,1,6.62,11.42,16.4,16.4,0,0,1,12.25-15.56,15.61,15.61,0,0,1-7.45-3.14,16.18,16.18,0,0,1-5.79-9.93,14.34,14.34,0,0,1-2.48,7.78A14.66,14.66,0,0,1,132.4,117.7Z"/><path class="cls-2" d="M389.85,271.12c-5.36-27-42-37.2-42-37.2L305.1,380.39s29.89,28.8,51.74,8.06S395.2,298.13,389.85,271.12Z"/><polygon class="cls-3" points="393.81 136.26 391.58 153.22 420.66 150.12 399.96 179.08 435.94 192.03 407.85 212.99 420.66 230.75 398.73 216.22 418.44 195.18 390.11 187.79 405.38 157.95 383.54 160.73 393.81 136.26"/><polygon class="cls-3" points="116.6 164.43 118.82 181.39 89.75 178.29 110.45 207.25 74.47 220.2 102.56 241.16 89.75 258.92 111.68 244.39 91.97 223.35 120.3 215.97 105.03 186.12 126.86 188.9 116.6 164.43"/><path class="cls-4" d="M217.8,130c-.82-.81-5.32-5-11.75-4.56-.94.06-4.69.34-7.21,2.7-6.55,6.13-4,25.47,7.27,30.44,6.32,2.77,13,0,15.3-1Q219.61,143.76,217.8,130Z"/><path class="cls-5" d="M210.62,152.52a.38.38,0,0,1-.26-.11c-2.81-2.71-4.08-5.53-3.78-8.36.38-3.54,3.08-6.15,4.61-7.37l-9.65.45a.38.38,0,1,1,0-.75l10.91-.5a.37.37,0,0,1,.38.26.38.38,0,0,1-.16.43s-4.83,3.06-5.3,7.56c-.28,2.59.92,5.2,3.55,7.74a.37.37,0,0,1,0,.53A.36.36,0,0,1,210.62,152.52Z"/><path class="cls-4" d="M351.47,130c.83-.81,5.32-5,11.76-4.56.94.06,4.68.34,7.21,2.7,6.54,6.13,4,25.47-7.28,30.44-6.32,2.77-13,0-15.3-1Q349.67,143.76,351.47,130Z"/><path class="cls-5" d="M358.65,152.52a.37.37,0,0,1-.27-.12.38.38,0,0,1,0-.53c2.64-2.54,3.83-5.15,3.56-7.74-.48-4.51-5.26-7.53-5.31-7.56a.38.38,0,0,1-.16-.43.36.36,0,0,1,.38-.26l10.91.5a.38.38,0,1,1,0,.75l-9.66-.45c1.53,1.22,4.24,3.83,4.61,7.37.3,2.83-1,5.65-3.78,8.36A.36.36,0,0,1,358.65,152.52Z"/><circle class="cls-6" cx="285.13" cy="118.55" r="76.78"/><path class="cls-6" d="M208.34,125.89c5.92,38.52,28.17,69.16,58.44,78.21a66.14,66.14,0,0,0,36.27.55c29.87-8.28,52.23-38.61,57.7-77.3C356.8,85,320.13,53.69,280.15,55.91,243.65,57.94,212.5,87.46,208.34,125.89Z"/><path class="cls-6" d="M268.28,188.78s.26,26.33-6.25,34.05-50.93,6.86-58.95,32.26,17.23,108.79,5.67,203.52c0,0,109.78,35,156.65,0,0,0-11.76-62.12-10.54-100.56s20.68-103,4.87-116.69-41.88-15.1-49.2-24-4-32.5-4-32.5S278.92,174.64,268.28,188.78Z"/><path class="cls-2" d="M263.23,214.14s33.47,4.35,50.35-2c0,0,3.17,8.7,9.53,10.87,14.44,4.94,43.5,19.78,52.85,27.94,23.25,20.31-13.49,74.17-8.19,160.92a287,287,0,0,0,6.35,45,179.92,179.92,0,0,1-178.62,1.51,201.77,201.77,0,0,0,10.37-49.17c3.42-42.18-7.08-82.57-6.69-132.46.07-8.56.54-27.32,12.72-36,1.56-1.11,4-2,8.67-3.92,6.2-2.59,32.13-10.12,36.48-13.63A22,22,0,0,0,263.23,214.14Z"/><path class="cls-5" d="M239,115.37a25.43,25.43,0,0,1,14.59-4.77c3.55-.09,8.35-.2,9.83,2.58a3.9,3.9,0,0,1-.1,3.92c-1.66,2.23-5.84.21-12.6.15-8.9-.08-14.69,3.29-15.27,2C235,118.34,237.87,116.21,239,115.37Z"/><path class="cls-5" d="M330,116a25.37,25.37,0,0,0-14.67-4.48c-3.55,0-8.36,0-9.78,2.77a3.86,3.86,0,0,0,.17,3.91c1.71,2.2,5.85.1,12.61-.09,8.89-.26,14.74,3,15.3,1.72C334,118.86,331.14,116.79,330,116Z"/><path class="cls-5" d="M288.08,148.92c-3.48,0-7.8-.4-8.6-2.29-1.19-2.87,4.43-16,5.08-17.54a.5.5,0,0,1,.92.4c-2.37,5.49-5.85,14.89-5.07,16.75s7.66,1.86,11.85,1.51a.5.5,0,1,1,.08,1C291.66,148.8,290,148.92,288.08,148.92Z"/><path class="cls-5" d="M283.9,181.66a11.45,11.45,0,0,1-5-1,.38.38,0,1,1,.32-.68c4.38,2.09,9.86.09,9.92.07a.37.37,0,0,1,.48.21.39.39,0,0,1-.22.49A17.64,17.64,0,0,1,283.9,181.66Z"/><ellipse class="cls-4" cx="323.45" cy="160.96" rx="6.14" ry="9.86" transform="translate(156.96 481.6) rotate(-89.02)"/><path class="cls-7" d="M264.73,143.44a6.87,6.87,0,1,1,.61-9.7A6.88,6.88,0,0,1,264.73,143.44Z"/><path class="cls-7" d="M321.21,143.74a6.88,6.88,0,1,1-.61-9.7A6.89,6.89,0,0,1,321.21,143.74Z"/><path class="cls-8" d="M299.4,164.61a60.08,60.08,0,0,1-30.33,0,15.67,15.67,0,0,0,30.33,0Z"/><path class="cls-2" d="M242.56,233.6c-21.69-2.23-35.54,2.73-43.86,7.22-17.18,9.27-23,22.22-47.68,52-11.59,14-21.69,24.8-28.27,31.61L157,359a134.26,134.26,0,0,0,33.45-16.72,127.11,127.11,0,0,0,36.79-38.13C243.84,277.11,243.83,248.55,242.56,233.6Z"/><path class="cls-6" d="M254,226.73c13.48,35.44,25.83,65.07,35.55,87.54,21.82,50.43,30.54,65.12,43.33,66.07,12.48.92,26.33-11.44,30.32-24.85,5.24-17.67-7.61-33.46-30.62-67.39-12.3-18.12-29.2-44-48.39-76.42Z"/><path class="cls-5" d="M287.18,207.48a75.56,75.56,0,0,1-20.56-2.9.5.5,0,1,1,.31-1c.21.07,21.09,6.64,39-.38a.5.5,0,0,1,.37.93A52.55,52.55,0,0,1,287.18,207.48Z"/><rect class="cls-1" height="77.39" rx="11.99" width="121.23" x="157.87" y="152.14"/><circle class="cls-2" cx="224.22" cy="194.83" r="24.36"/><path class="cls-9" d="M224.22,215.18a20.35,20.35,0,1,1,20.34-20.35A20.37,20.37,0,0,1,224.22,215.18Z"/><rect class="cls-2" height="11.88" rx="2.75" width="19.61" x="252.43" y="158.59"/><rect class="cls-1" height="13.26" rx="5.98" width="20.82" x="171.42" y="145.16"/><circle class="cls-2" cx="195.57" cy="161.7" r="3.32"/><path class="cls-6" d="M187,191.43c4.4,59-3.53,102.11-11,129.45-6.78,24.69-13.72,38.32-25.26,41.1-12.23,2.95-27.66-6.77-34.12-19.3-9.29-18.05,2.29-37.53,15.22-71a534.21,534.21,0,0,0,26.09-91.32Z"/><path class="cls-6" d="M152.44,205.36s-.08-44.8,5.43-57,29.44-12.4,31.95-10.11-4,7.15-9.2,9-12.21,5.52-13.21,9.87a32.24,32.24,0,0,0-.17,10s11.39-12.88,21-12.88-4.78,9.7-8.29,13.88-3.34,7.2-3.34,7.2,10.66-10.83,19-10.35-7.87,9.68-12.94,16.25c0,0,12.81-7.18,15.27-4.95s-6.58,9.06-7.91,14.51,2.8,14.46-2,18.31S154.2,215,152.44,205.36Z"/><path class="cls-6" d="M218.49,229.53s3.11,6.81,14.65,8.56,22.88-4.26,33.64,0,22.46-11.44,17.39-26.41c-4.08-12.06-2.77-26.19-6.38-26.27-2.53-.06-4.85,6.53-5.69,10.54-1.82,8.73,1.74,13,.84,17.73-1,5.37-8,11.51-32.7,15.72Z"/><path class="cls-5" d="M285.82,216.77a.5.5,0,0,1-.46-.31c-1-2.47-2-5-2.78-7.57a95.74,95.74,0,0,1-4.29-22.95.52.52,0,0,1,.47-.53.49.49,0,0,1,.53.47,94.25,94.25,0,0,0,4.25,22.71c.8,2.52,1.72,5,2.74,7.48a.5.5,0,0,1-.27.66A.65.65,0,0,1,285.82,216.77Z"/><path class="cls-5" d="M289.31,64s20.92-14.38,34.14,5.69-1.51,50.08,30.6,46.11c0,0,1.51,6.4-1.33,18.44s2.4,13.11,4.12,10,7.17-18.87,8.62-18.48a35.78,35.78,0,0,1,5,2.4s11.8-31.68,3.56-45.4-18.28-5-26.14-26.92-37.7-27.27-55.56-16.56c0,0-30.9-13.35-51.3-5.34s-16.32,24.4-28.57,31.43S191,86.73,192.24,98.78s9.28,27.65,9.28,27.65,4-1.23,5.45,1.66,2.75,17.93,8.77,18,2.75-26.51,2.75-26.51,20.28,0,26.07-21.44S261.69,39.24,289.31,64Z"/><path class="cls-8" d="M356.11,107.84a11.35,11.35,0,0,1-4.34-.86c-8.55-3.53-13.85-17.46-18.53-29.76-3.8-10-7.39-19.44-12-21.82-12.32-6.32-29.13,2.91-29.29,3a.5.5,0,0,1-.68-.2.5.5,0,0,1,.19-.68,50,50,0,0,1,10.23-4c5.43-1.45,13.3-2.46,20,1,5,2.56,8.63,12.17,12.51,22.36,4.6,12.1,9.82,25.82,18,29.18,3,1.22,6.07,1,9.55-.54a.5.5,0,0,1,.66.25.49.49,0,0,1-.24.66A14.61,14.61,0,0,1,356.11,107.84Z"/><path class="cls-8" d="M358.51,96.78a7.32,7.32,0,0,1-.81,0c-8.19-.71-14.2-12-14.46-12.45a.5.5,0,0,1,.89-.46c.06.11,6,11.25,13.66,11.92,3.46.31,6.79-1.6,9.92-5.64a.5.5,0,1,1,.79.61C365.39,94.74,362,96.78,358.51,96.78Z"/><path class="cls-8" d="M214.1,115a27.55,27.55,0,0,1-9-1.65.5.5,0,0,1,.32-.94c6.54,2.25,12,2.14,16.74-.33,10.4-5.44,14.88-21.35,18.82-35.39,3-10.77,5.65-20.08,10.45-22.7,13.35-7.31,31.11-.1,31.29,0a.52.52,0,0,1,.27.66.51.51,0,0,1-.65.27c-.18-.07-17.5-7.1-30.43,0-4.43,2.42-7,11.54-10,22.09-4,14.23-8.54,30.36-19.33,36A18.19,18.19,0,0,1,214.1,115Z"/><path class="cls-8" d="M208.54,104.88a19.65,19.65,0,0,1-9-2.31.52.52,0,0,1-.22-.68.51.51,0,0,1,.68-.21,17.36,17.36,0,0,0,13.91,1.3c10.83-3.69,17.45-17.49,17.52-17.63a.5.5,0,0,1,.66-.24.5.5,0,0,1,.24.67c-.27.58-6.86,14.32-18.09,18.14A17.63,17.63,0,0,1,208.54,104.88Z"/><path class="cls-5" d="M202.4,333.67h0a.49.49,0,0,1-.49-.5c.36-26.49-6.81-65.49-6.89-65.88a.5.5,0,0,1,.4-.59.51.51,0,0,1,.59.4c.07.39,7.26,39.49,6.9,66.08A.51.51,0,0,1,202.4,333.67Z"/><path class="cls-5" d="M340.81,300.68a.36.36,0,0,1-.14,0,.5.5,0,0,1-.34-.62c5.75-19.91,7.14-32.77,7.15-32.9a.5.5,0,0,1,1,.11c0,.12-1.42,13.06-7.19,33.07A.49.49,0,0,1,340.81,300.68Z"/><path class="cls-5" d="M345.66,384.09a33.87,33.87,0,0,1-14.42-3.26.51.51,0,0,1-.2-.68.49.49,0,0,1,.67-.2c.2.1,20.25,10.54,35.93-7.24a.5.5,0,0,1,.71,0,.48.48,0,0,1,0,.7C361,381.8,352.58,384.09,345.66,384.09Z"/><path class="cls-5" d="M172.76,180.18a.36.36,0,0,1-.22-.07.37.37,0,0,1-.09-.52,34.75,34.75,0,0,1,3.9-4.49.38.38,0,1,1,.51.55,33.67,33.67,0,0,0-3.79,4.37A.37.37,0,0,1,172.76,180.18Z"/><path class="cls-5" d="M180.45,186.45h0a.37.37,0,0,1-.34-.4c0-.17.38-4.09,3-5.46a.38.38,0,0,1,.35.67c-2.27,1.18-2.62,4.82-2.62,4.85A.38.38,0,0,1,180.45,186.45Z"/><path class="cls-5" d="M163.39,173.74h-.1a.38.38,0,0,1-.26-.46c.05-.19,1.29-4.54,3.91-6.78a.38.38,0,0,1,.53,0,.36.36,0,0,1,0,.52c-2.45,2.09-3.66,6.37-3.68,6.41A.37.37,0,0,1,163.39,173.74Z"/></g></svg>