<?xml version="1.0" ?><svg viewBox="0 0 512 512" xmlns="http://www.w3.org/2000/svg"><defs><style>.cls-1{fill:#ff832f;}.cls-2{fill:#ffb833;}.cls-3{fill:#d89071;}.cls-4,.cls-7{fill:#383333;}.cls-5{fill:#fff3e3;}.cls-6{fill:#d17352;}.cls-7{fill-rule:evenodd;}.cls-8{fill:#fff;}</style></defs><title/><g id="Study"><circle class="cls-1" cx="376.83" cy="208.53" r="70.32"/><path class="cls-1" d="M363.27,273l10.27,27.18a3.39,3.39,0,0,0,6.33,0q5.26-13.61,10.51-27.2Z"/><path class="cls-2" d="M445.82,128.88a20,20,0,0,1,5.05,3.37A21.06,21.06,0,0,1,457,142.82a15.18,15.18,0,0,1,11.33-14.4,14.52,14.52,0,0,1-6.89-2.91,15,15,0,0,1-5.36-9.19,13.27,13.27,0,0,1-2.3,7.2A13.51,13.51,0,0,1,445.82,128.88Z"/><path class="cls-2" d="M464.54,139.49a6.8,6.8,0,0,1,1.7,1.14,7.14,7.14,0,0,1,2.07,3.56,5.11,5.11,0,0,1,3.82-4.86,4.67,4.67,0,0,1-2.32-1,5,5,0,0,1-1.81-3.09,4.44,4.44,0,0,1-.78,2.42A4.53,4.53,0,0,1,464.54,139.49Z"/><path class="cls-2" d="M444.62,120.19a4.45,4.45,0,0,1,1.16.77,4.88,4.88,0,0,1,1.42,2.44,3.53,3.53,0,0,1,.88-2.26,3.44,3.44,0,0,1,1.73-1.06,3.36,3.36,0,0,1-1.59-.67,3.53,3.53,0,0,1-1.24-2.12,3,3,0,0,1-.53,1.66A3.14,3.14,0,0,1,444.62,120.19Z"/><path class="cls-2" d="M56.12,191.57a27.64,27.64,0,0,0-6.95,4.63,29,29,0,0,0-8.43,14.55,21.41,21.41,0,0,0-5.27-13.49,21.13,21.13,0,0,0-10.33-6.33,19.89,19.89,0,0,0,9.48-4A20.62,20.62,0,0,0,42,174.28a18.3,18.3,0,0,0,3.16,9.91A18.63,18.63,0,0,0,56.12,191.57Z"/><path class="cls-2" d="M30.36,206.16A9.39,9.39,0,0,0,28,207.73a9.83,9.83,0,0,0-2.84,4.9A7,7,0,0,0,19.92,206a6.65,6.65,0,0,0,3.19-1.35,6.88,6.88,0,0,0,2.49-4.26,6.09,6.09,0,0,0,1.07,3.34A6.22,6.22,0,0,0,30.36,206.16Z"/><path class="cls-2" d="M57.77,179.6a6.63,6.63,0,0,0-1.6,1.07,6.74,6.74,0,0,0-2,3.36,4.8,4.8,0,0,0-3.59-4.57,4.58,4.58,0,0,0,2.18-.93,4.66,4.66,0,0,0,1.7-2.91,4.15,4.15,0,0,0,3.26,4Z"/><circle class="cls-3" cx="144.45" cy="129.67" r="73.02"/><path class="cls-3" d="M108.71,174.88s-6.7,33.7-23.46,50.29-38,33.64-42.45,92.14,0,144.51,0,144.51,93.84,34.63,169.8,0c-27.57-42.29-35.06-77.49-36.87-101.65C172.46,316.33,185.44,276,162,249.58c-4.3-4.84-13.22-13-16.68-27.09-2.63-10.69-1.43-22.19,3.27-34.72Z"/><path class="cls-3" d="M108.34,192.23s41,34.26,75.21,15.64S227.49,99.14,227.49,99.14s-44.32-54.61-90.11-37.23S108.34,192.23,108.34,192.23Z"/><rect class="cls-4" height="79.86" rx="7.67" width="17.13" x="441.25" y="390.89"/><rect class="cls-4" height="20.67" rx="6.75" width="242.96" x="240.52" y="380.55"/><rect class="cls-2" height="13.69" rx="6.13" width="191.22" x="263.98" y="366.87"/><rect class="cls-2" height="143.68" rx="6.66" transform="translate(96.04 -111.44) rotate(15.2)" width="14.88" x="458.13" y="232.28"/><path class="cls-5" d="M96.14,204.61S89.72,218,69.61,236.45s-32.95,55-32.95,124.83V462.94s110.85,42.44,180.82-2.8c0,0-38.4-63.11-37.84-112.26s2.24-72.61-8.65-90.21-22.07-23.77-24.3-39.37C146.69,218.3,118.76,217.18,96.14,204.61Z"/><path class="cls-3" d="M312.43,363.94c18.89,2.85,31.42-.24,39.52-3.77,5.76-2.52,11.89-6.39,17.87-3.91s7.08,9.34,14,10.61c2.37.43,7.13.67,7.82-1.68s-16.34-28.48-25.84-30.72-48.31,2.38-60.46,2.1C305.31,336.57,304.2,359.47,312.43,363.94Z"/><path class="cls-5" d="M135.15,266.33c11,3.11,15.06,12.67,23.83,24.21,9.07,11.94,24,27.1,49.51,40.21L313.88,336l4.46,30.91s-77.47,23.46-109.85,21.22-96.43-49.15-96.43-49.15c-19.88-16.11-24.51-41.5-14.15-57.34C105.64,269.79,122.12,262.64,135.15,266.33Z"/><path class="cls-3" d="M217.06,138.61S215.2,149,221,155.37s.56,17.13-14.52,12.29L205,155.37Z"/><path class="cls-4" d="M180.09,114.36a25.89,25.89,0,0,1,15.59-1.3c3.55.75,8.34,1.76,9.15,4.87a4,4,0,0,1-1,3.87c-2.17,1.82-5.85-1.17-12.54-2.82-8.81-2.17-15.34-.18-15.63-1.59C175.44,116.38,178.78,114.93,180.09,114.36Z"/><ellipse class="cls-6" cx="174.29" cy="153.74" rx="6.26" ry="10.06" transform="translate(-21.57 278.86) rotate(-73.99)"/><path class="cls-7" d="M198,146.67a7.57,7.57,0,1,1,2.51-10.4A7.59,7.59,0,0,1,198,146.67Z"/><path class="cls-8" d="M183.51,168.29l18.14,11s-6.09,14.57-15.16,12.31S181.1,172.25,183.51,168.29Z"/><path class="cls-4" d="M185.13,195.42a6.68,6.68,0,0,1-5.85-3.39.37.37,0,0,1,.17-.5.38.38,0,0,1,.5.17,5.85,5.85,0,0,0,5.65,3,.37.37,0,0,1,.4.35.37.37,0,0,1-.35.4Z"/><path class="cls-3" d="M132.77,120.34c-.52-1-3.42-6.31-9.56-7.83-.9-.23-4.47-1.11-7.55.32-8,3.72-11.52,22.51-2.49,30.58,5,4.52,12.14,4,14.57,3.72Q130.26,133.73,132.77,120.34Z"/><path class="cls-4" d="M119.33,139.18a.38.38,0,0,1-.33-.2c-1.79-3.38-2.12-6.39-1-8.95,1.42-3.17,4.72-4.78,6.52-5.45l-9.11-2.52a.37.37,0,0,1-.26-.46.38.38,0,0,1,.46-.27L126,124.19a.38.38,0,0,1,0,.73c-.06,0-5.44,1.38-7.25,5.42-1,2.33-.72,5.12,1,8.29a.38.38,0,0,1-.15.51A.39.39,0,0,1,119.33,139.18Z"/><path class="cls-4" d="M129.48,116a14.1,14.1,0,0,1,2.07,10.84c-1.24,6.63-1.24,13.08,3.22,11.77S140.73,118,151,112s15.27-6.83,17.78-18.56c0,0,28.85,18.25,30.72,0,0,0,22.34,18.43,35.75,6.7S233.54,70.29,209,70c2.71-10.19-1.94-20.62-10.52-24.86-6.91-3.4-15.47-2.36-22,2.61C171.86,37.42,162.13,30.81,151.9,31c-9.87.19-16.38,6.64-17.87,8.2-7.63-6.28-18.11-7.27-26.07-2.61-9.67,5.67-10.71,16.83-10.79,17.87-.74-.08-14-1.36-22,8.94a24.51,24.51,0,0,0-1.12,27.83c-.71,0-12.84.51-17.87,9.4S55,123.23,67.1,130.25c-7.44,3.42-11.94,10.8-11.26,18.05.85,9.18,9.91,16.93,20.75,16.1,0,0-2,27,27.35,27.47s25.77-43.46,21.92-44.09-16.75-1.06-17.83-15.13,3.19-19.08,10.73-20.62S129.48,116,129.48,116Z"/><path class="cls-4" d="M143.92,211.39l-.13,0c-14.43-3.76-29.64-15.18-29.8-15.29a.5.5,0,0,1,.61-.8c.15.11,15.21,11.41,29.44,15.12a.5.5,0,0,1-.12,1Z"/><path class="cls-4" d="M182.24,381.05a.57.57,0,0,1-.18,0c-25.06-9.71-58.87-26.15-77.64-49.34-11.28-13.95-11.75-23.61-11.76-24a.5.5,0,0,1,.48-.52.52.52,0,0,1,.52.48c0,.1.49,9.81,11.62,23.52,18.64,23,52.24,39.29,77.14,48.94a.5.5,0,0,1,.29.64A.51.51,0,0,1,182.24,381.05Z"/><path class="cls-4" d="M179.61,312.42a.5.5,0,0,1-.34-.13,304.66,304.66,0,0,1-28.05-31.78c-7.38-9.61-14.46-13-19.1-14.17a16.73,16.73,0,0,0-8.36-.21.5.5,0,0,1-.3-.95c.56-.19,14-4.25,28.55,14.72a303.61,303.61,0,0,0,28,31.66.5.5,0,0,1,0,.71A.51.51,0,0,1,179.61,312.42Z"/><path class="cls-4" d="M186.16,344.6a.5.5,0,0,1-.32-.11.5.5,0,0,1-.07-.7c.47-.58,11.52-14.1,22.74-13.54a.5.5,0,1,1,0,1c-10.68-.53-21.8,13-21.91,13.17A.51.51,0,0,1,186.16,344.6Z"/><path class="cls-8" d="M217.67,92.88h-.6c-10.23-.37-20.92-9.69-25.21-13.86,1,3.11,1.79,8.37-3.26,12.07a6,6,0,0,1-4.81,1c-6.49-1.23-12.95-11.37-13.23-11.8a.51.51,0,0,1,.16-.69.5.5,0,0,1,.69.15c.06.11,6.51,10.21,12.57,11.36a4.93,4.93,0,0,0,4-.88c6.79-5,2.07-13,1.86-13.3a.5.5,0,0,1,.13-.66.51.51,0,0,1,.67.06c.14.15,13.94,15.06,26.44,15.5a13.45,13.45,0,0,0,10-3.79.49.49,0,0,1,.7,0,.48.48,0,0,1,0,.7A14.31,14.31,0,0,1,217.67,92.88Z"/><path class="cls-8" d="M148.92,99.55h-.07c-7.2-1.09-11.45-3.35-12.63-6.72-1.13-3.22.87-6.46,1.95-7.88-2.86-.36-11.59-1.94-18.21-8.5-2.23-2.2-3.19-4.52-2.85-6.88.51-3.56,3.83-6.22,5.61-7.41-3-.65-10.45-2.62-13-6.74a5.64,5.64,0,0,1-.62-4.82c2.61-8.72,18.88-5.52,19.57-5.38a.51.51,0,0,1,.39.59.5.5,0,0,1-.59.39c-.16,0-16.06-3.16-18.41,4.68a4.64,4.64,0,0,0,.51,4c2.95,4.73,13.5,6.51,13.61,6.53a.49.49,0,0,1,.41.41.5.5,0,0,1-.25.52c-.06,0-5.6,3.07-6.21,7.36-.29,2,.57,4.06,2.56,6,7.72,7.64,18.41,8.3,18.52,8.3a.51.51,0,0,1,.43.31.49.49,0,0,1-.09.53s-3.63,4-2.36,7.62c1.05,3,5,5,11.84,6.06a.5.5,0,0,1,.42.57A.51.51,0,0,1,148.92,99.55Z"/><path class="cls-8" d="M107.06,105.52c-4.93,0-8.65-1.2-11.12-3.59a11.38,11.38,0,0,1-3.15-9c-8.27.53-13.93-1-16.84-4.54a9.92,9.92,0,0,1-1.79-8.45.5.5,0,0,1,.61-.35.5.5,0,0,1,.35.62,9.12,9.12,0,0,0,1.61,7.56c2.76,3.35,8.34,4.73,16.58,4.12a.49.49,0,0,1,.53.58c0,.05-.82,5.25,2.8,8.76s9.81,4.17,18.79,2.37a.5.5,0,0,1,.2,1A43.68,43.68,0,0,1,107.06,105.52Z"/><path class="cls-8" d="M92.06,131.61a9.51,9.51,0,0,1-2.91-.45c-5-1.57-7.54-6.81-8.31-8.66-3.65,2.75-7.06,3.71-10.16,2.86-5.24-1.44-7.58-7.52-7.68-7.78a.49.49,0,0,1,.29-.64.5.5,0,0,1,.65.29c0,.06,2.26,5.86,7,7.17,2.92.8,6.22-.24,9.8-3.1a.48.48,0,0,1,.45-.08.47.47,0,0,1,.33.31c0,.07,2.47,6.95,7.93,8.68,3.21,1,6.86.08,10.86-2.8a.51.51,0,0,1,.7.11.5.5,0,0,1-.12.7C97.77,130.48,94.81,131.61,92.06,131.61Z"/><path class="cls-8" d="M104.31,180.66A15.49,15.49,0,0,1,97,178.88c-9.68-5.1-12.63-19.37-13.21-22.87-3.76,2.25-7.1,2.77-10,1.57-5.45-2.31-7-10-7.11-10.37a.5.5,0,1,1,1-.2c0,.08,1.57,7.55,6.52,9.65,2.69,1.13,5.94.5,9.66-1.9a.51.51,0,0,1,.48,0,.49.49,0,0,1,.29.39c0,.17,2.43,17.41,12.81,22.87,4.94,2.61,11,2.15,17.86-1.35a.5.5,0,0,1,.68.22.51.51,0,0,1-.22.67A25.57,25.57,0,0,1,104.31,180.66Z"/><path class="cls-5" d="M368.48,234.61c-26.92-23.08-25.91-52.72-9.69-64.22,11.75-8.33,33.31-8.42,44.69,0,15.42,11.4,15.44,40.85-12.2,64.14Z"/><path class="cls-4" d="M383,240a.51.51,0,0,1-.5-.49c-.45-11.78,3.13-24.2,7-31.35a22.61,22.61,0,0,1-6.46-.34,12.62,12.62,0,0,1-1.42-.4c-2.49,3.27-6.32,4.17-10.94,2.57.74,2.44,1.46,5.28,2.14,8.52,2,9.54,3,19.21,3,19.31a.5.5,0,0,1-.45.55.51.51,0,0,1-.54-.45c-.66-6.52-2.52-19.44-5.36-28.39-4.95-2.13-9.41-6.62-8.95-9.09.11-.57.58-1.52,2.51-1.53h0c2.64,0,5.06,3.31,7.22,9.87,2.61,1,7.26,2.09,10.38-1.77a4,4,0,0,1-2.48-3.22,5.62,5.62,0,0,1,3.24-5.74,2.35,2.35,0,0,1,2.81.44c.66.8,1.27,2.91-2,8.07.35.12.71.21,1.05.29a21.45,21.45,0,0,0,6.85.24c1.51-2.53,3-4.24,4.37-4.79a2.22,2.22,0,0,1,2.63.55,1.9,1.9,0,0,1,.4,2.36c-.83,1.44-3.63,2.41-6.79,2.82-3.81,6.69-7.72,19.19-7.25,31.45a.51.51,0,0,1-.48.52Zm-19.9-40.09h0c-.93,0-1.45.25-1.54.71-.28,1.53,3,5.39,7.54,7.61C367.4,203.28,365.39,199.86,363.1,199.86ZM395.5,203a1.45,1.45,0,0,0-.61.14c-1,.41-2.22,1.71-3.46,3.68,2.6-.45,4.71-1.27,5.24-2.2.15-.25.25-.62-.26-1.18A1.19,1.19,0,0,0,395.5,203Zm-12.82-4.3a2.34,2.34,0,0,0-.84.19,4.69,4.69,0,0,0-2.63,4.73,3.17,3.17,0,0,0,2.08,2.48c2.61-4,2.85-6.28,2.21-7.06A1,1,0,0,0,382.68,198.74Z"/><rect class="cls-2" height="7.73" rx="2.83" width="8.56" x="375.69" y="245.22"/><path class="cls-2" d="M367.64,233.71v10.81a4.89,4.89,0,0,0,4.89,4.89H388.4a3.91,3.91,0,0,0,3.91-3.91V233.58Z"/></g></svg>