<?xml version="1.0" ?><svg viewBox="0 0 512 512" xmlns="http://www.w3.org/2000/svg"><defs><style>.cls-1{fill:#ff535c;}.cls-2{fill:#ffdb99;}.cls-3,.cls-8{fill:#383333;}.cls-4{fill:#ffb833;}.cls-10,.cls-5,.cls-7,.cls-9{fill:none;stroke-linecap:round;stroke-linejoin:round;}.cls-5,.cls-7,.cls-9{stroke:#383333;}.cls-5{stroke-width:5px;}.cls-6{fill:#ffc871;}.cls-7{stroke-width:0.75px;}.cls-8{fill-rule:evenodd;}.cls-10{stroke:#fff;}</style></defs><title/><g data-name="Sit Up" id="Sit_Up"><path class="cls-1" d="M113,415.07,95.36,442.36s-26.8.24-31.41,26.83h99.43V439.74Z"/><circle class="cls-2" cx="328.16" cy="137.6" r="66.1"/><path class="cls-2" d="M373.59,165.21s3,35,20.67,44.18,48.1,62.24,59.35,170.54c0,0-64.59,8.27-125.45,8.27,0,0,20.42-66.27,14.79-93.78s3.13-48.77,10.63-62.52-18.13-44.39-18.13-44.39Z"/><path class="cls-3" d="M109.76,418.2s48.76-119.23,95-129S335.25,362,335.25,362H451.51s14.6,92.81-51.67,107-143.42-41.38-186.3-98.6l-50,78.12S127.26,439.46,109.76,418.2Z"/><path class="cls-2" d="M265.27,158s13.71,57.66,47.05,56.83,54.6-28.41,54.6-28.41-8.34-46.19-32.93-61.2S263.65,130.73,265.27,158Z"/><path class="cls-2" d="M368.69,240.28A179.7,179.7,0,0,1,342,249.57c-33.3,8.7-62.73,6.08-82.44,2.32q-3.77,15.38-7.54,30.77a220.66,220.66,0,0,0,34.32,11.65C328,304.75,357,299,362.88,297.75c16.18-3.43,28.49-6.24,36-17.41,6-8.87,10.86-26,.86-36.22C392.64,236.85,380.15,235.24,368.69,240.28Z"/><path class="cls-2" d="M327.25,177.62c-29,14.63-47.27,32.23-58.06,44.7-10.1,11.68-34.11,39.43-25.54,54,4.11,7,15.06,9.8,23.51,8,14.58-3,20.73-19.39,31.06-37.94a282.28,282.28,0,0,1,43.54-58.35Z"/><path class="cls-2" d="M270.53,170s4.27,7.35,1.37,11.9-.74,14.8,11.24,8.42Z"/><path class="cls-2" d="M310.8,226.07s10.93-9.26,19.64-10.28,4.24-8.87-9.05-4.22-9.09,1.61-9.09,1.61l-6.33,9Z"/><path class="cls-4" d="M270.58,45a22.92,22.92,0,0,1,5.64,3.76,23.44,23.44,0,0,1,6.83,11.8,17.35,17.35,0,0,1,4.28-10.94,17.11,17.11,0,0,1,8.37-5.13A16.14,16.14,0,0,1,288,41.25,16.7,16.7,0,0,1,282,31a14.75,14.75,0,0,1-2.57,8A15,15,0,0,1,270.58,45Z"/><path class="cls-4" d="M409.56,192.27A22.64,22.64,0,0,1,415.2,196a23.51,23.51,0,0,1,6.84,11.8,17.32,17.32,0,0,1,4.27-10.94,17.15,17.15,0,0,1,8.37-5.13,16.14,16.14,0,0,1-7.69-3.25,16.7,16.7,0,0,1-6-10.25,14.8,14.8,0,0,1-2.56,8A15.08,15.08,0,0,1,409.56,192.27Z"/><path class="cls-4" d="M192.23,208.56a30.19,30.19,0,0,1,7.58,5.05A31.56,31.56,0,0,1,209,229.45a23.26,23.26,0,0,1,5.74-14.69A23,23,0,0,1,226,207.87a21.61,21.61,0,0,1-10.33-4.36,22.46,22.46,0,0,1-8-13.77,19.9,19.9,0,0,1-3.44,10.79A20.23,20.23,0,0,1,192.23,208.56Z"/><line class="cls-5" x1="22.76" x2="491.24" y1="469.19" y2="469.19"/><path class="cls-3" d="M295.63,153a19.94,19.94,0,0,0-11.95,1.36c-2.56,1.09-6,2.58-6.17,5a3,3,0,0,0,1.35,2.76c1.91,1,4.23-1.75,9-4,6.32-3,11.54-2.44,11.54-3.54C299.43,153.78,296.7,153.19,295.63,153Z"/><ellipse class="cls-6" cx="306.46" cy="181.16" rx="7.73" ry="4.81" transform="translate(-43.33 114.97) rotate(-19.87)"/><path class="cls-2" d="M327.88,146.45a13.2,13.2,0,0,1,6.7-8.14,10.11,10.11,0,0,1,6.37-1c7.28,1.78,13.38,16.91,7.17,25.17-3.47,4.61-9.5,5.36-11.58,5.52Z"/><path class="cls-7" d="M342.53,144.72l-8.16,4.1s10.93.49,7.83,10.85"/><path class="cls-8" d="M294.42,176.54a5.82,5.82,0,1,1-3.44-7.46A5.83,5.83,0,0,1,294.42,176.54Z"/><path class="cls-8" d="M296.54,167.41c-.16,0-.5,2.2-1.92,2.6-1.05.29-1.73-.71-3.39-1.18a7,7,0,0,0-4.3.26,14.67,14.67,0,0,0,3.41,2.31c1.76.86,2.9,1.42,4,1C296.53,171.59,296.75,167.49,296.54,167.41Z"/><path class="cls-3" d="M262.07,129s23.79,14.71,42.95,17,21.34.81,25.18-4.14,12.45-7.46,15.94-.88,7.66,16.15.59,23,21.75,28.9,31.87,23.84,27.25-32.36,20-61.38-22.06-54.58-61.83-58.06S260.41,92.31,259,120.14c0,0-22.4,19.65,8.4,45.07C267.36,165.21,261.39,144.58,262.07,129Z"/><circle class="cls-3" cx="360.68" cy="64.6" r="26.32"/><path class="cls-1" d="M306.46,255.12S292.8,272.45,299.19,298A157.35,157.35,0,0,0,340,304q-2,25.44-4.06,50.9c14.28-.44,29.34-1.36,45.09-2.91a664,664,0,0,0,71.83-11.06s-16.77-118.14-58.62-131.53c0,0-16.91,25.21-42.93,26.81l-6,12.44S320.69,253.66,306.46,255.12Z"/><path class="cls-7" d="M288.11,203.41c3.22-2.73,8.11-6.69,14.37-11.08,4.77-3.34,20-14,21.87-12,.69.77-.2,3.6-8.28,13.39"/><path class="cls-7" d="M323.71,184.85s5.86-5.63,7.46-2.44c.47,1-.26,2.72-1.53,4.75-3,4.77-8.92,10.93-8.92,10.93"/><path class="cls-7" d="M326,202.32s12.92-16.29,10.58-18-5.28.82-5.28.82"/><path class="cls-7" d="M335.53,188.62a2.41,2.41,0,0,1,3,2.85c-.31,3.54-9.13,14.16-9.13,14.16a22.4,22.4,0,0,1-9.59,6.47"/><path class="cls-7" d="M313.91,223.66s7.9-6.75,14.83-7.57,10.8-7.07-4.59-6"/><path class="cls-9" d="M262,262.19A49.74,49.74,0,0,1,282,254.45a48.83,48.83,0,0,1,11.23-.39"/><path class="cls-9" d="M379.5,288.39S365,300.89,340,304"/><path class="cls-9" d="M345.37,248.64a47.88,47.88,0,0,1,29.81-14.12"/><path class="cls-9" d="M84.44,444.55s11.94,14.06,15.23,12.71-7.25-13.55-4.31-14.9,17.85,7,18.63,2.51S103.4,430,103.4,430"/><path class="cls-10" d="M209.1,334.08s.47,25.38,5.75,38.09"/><path class="cls-10" d="M335.25,362s50.83,23.44,64,53.05"/><path class="cls-10" d="M276.83,118.4s25.93,20.23,60,8.76"/><path class="cls-10" d="M299,108.34s32.38,14.32,61.28,6.58"/><path class="cls-10" d="M382.21,118.4s13.93,30.5,0,54.15"/><path class="cls-10" d="M366.92,137.6s12,16,.67,31.12"/><path class="cls-10" d="M345.83,64.6s-2.51-19.93,23.85-18.77"/><path class="cls-10" d="M372.45,55.19s9.17,13.71-5.53,22.2"/><path class="cls-9" d="M484,271.74s-13.35-84.05-35.77-73,29.9,43.84,29.36,10.37-54.45-50.25-54.45-50.25l5.87,12"/><line class="cls-9" x1="437.6" x2="423.18" y1="157.9" y2="158.87"/><path class="cls-9" d="M358.93,194.73s-6.74,6.07-12,9.12"/></g></svg>