<?xml version="1.0" ?><svg viewBox="0 0 512 512" xmlns="http://www.w3.org/2000/svg" xmlns:xlink="http://www.w3.org/1999/xlink"><defs><style>.cls-1{fill:none;}.cls-2{clip-path:url(#clip-path);}.cls-3{fill:#ffdb99;}.cls-11,.cls-4{fill:#ff8c5f;}.cls-5{fill:#ffb08d;}.cls-6,.cls-8{fill:#383333;}.cls-7{fill:#ffb833;}.cls-11,.cls-8{fill-rule:evenodd;}.cls-9{fill:#ff832f;}.cls-10{fill:#fff;}</style><clipPath id="clip-path"><rect class="cls-1" height="267.15" rx="16.35" transform="translate(629.32 329.03) rotate(-180)" width="334.42" x="147.45" y="30.94"/></clipPath></defs><title/><g id="Law"><g class="cls-2"><rect class="cls-3" height="267.15" rx="16.35" transform="translate(629.32 329.03) rotate(-180)" width="334.42" x="147.45" y="30.94"/><rect class="cls-4" height="64.49" width="375.21" x="125.63" y="9.94"/></g><circle class="cls-3" cx="451.33" cy="52.18" r="7.08"/><circle class="cls-3" cx="423.48" cy="52.18" r="7.08"/><circle class="cls-3" cx="395.64" cy="52.18" r="7.08"/><path class="cls-5" d="M76.18,240.58s-31.89,16.62-33.91,42.2-4.05,122.7-12.14,169.64c0,0,20.23,12.41,41,15.11L83.75,295.94Z"/><path class="cls-5" d="M289.94,317.93c12.57-25.14,24.12-31.26,32.4-32.15,8.82-1,13.59,4.07,26.73,1.3,7.54-1.58,16.17-5.38,19.11-1.88A4.31,4.31,0,0,1,369,287c.47,2.36-3.31,9.13-53.28,30.81Z"/><path class="cls-5" d="M199.25,227.23A49.6,49.6,0,0,1,212,230.55c17.25,7.06,25.69,22.11,29.47,29.07,8.16,15.06,6.89,23.19,12.15,46.79a299.71,299.71,0,0,0,14.61,46.89l-31.06,13.25c-3.36-4.81-7.72-11.45-12.33-19.64,0,0-10.29-18.28-16.45-35.77C196.34,276.92,198.54,237.42,199.25,227.23Z"/><path class="cls-5" d="M305.38,295.75c-22.45,12.86-75.91,45.52-69.82,67.26,2.54,9.05,15.28,15.85,25.58,15.19,10.54-.68,16.46-9,40.28-37.69,10-12.08,18.17-21.63,22.84-27.1Z"/><path class="cls-6" d="M248,359.36a.51.51,0,0,1-.5-.43c0-.16-2.23-16.74,11.08-32.51a.51.51,0,0,1,.71-.05.49.49,0,0,1,.06.7c-13,15.41-10.88,31.56-10.86,31.72a.51.51,0,0,1-.42.57Z"/><path class="cls-6" d="M55.54,149.85S44.39,238.19,74.28,251.34s126,8.58,139.34-21.51-10.44-123.17-10.44-123.17Z"/><path class="cls-7" d="M310.65,378.52a25.51,25.51,0,0,1,6.3,4.2,26.21,26.21,0,0,1,7.63,13.18,19.39,19.39,0,0,1,4.77-12.22,19.09,19.09,0,0,1,9.36-5.73,18,18,0,0,1-8.59-3.63,18.62,18.62,0,0,1-6.68-11.45,16.59,16.59,0,0,1-2.87,9A16.81,16.81,0,0,1,310.65,378.52Z"/><path class="cls-7" d="M334,391.75a8.34,8.34,0,0,1,2.12,1.41,8.84,8.84,0,0,1,2.58,4.44,6.37,6.37,0,0,1,4.76-6.05,6,6,0,0,1-2.9-1.22,6.34,6.34,0,0,1-2.25-3.86,5.61,5.61,0,0,1-1,3A5.69,5.69,0,0,1,334,391.75Z"/><path class="cls-7" d="M309.15,367.69a5.8,5.8,0,0,1,1.45,1,6.08,6.08,0,0,1,1.77,3,4.37,4.37,0,0,1,1.1-2.82,4.32,4.32,0,0,1,2.15-1.32,4.21,4.21,0,0,1-2-.84,4.33,4.33,0,0,1-1.54-2.64,3.79,3.79,0,0,1-.66,2.07A3.88,3.88,0,0,1,309.15,367.69Z"/><path class="cls-7" d="M440,111.28a18.21,18.21,0,0,1,4.58,3,19,19,0,0,1,5.55,9.58,14.08,14.08,0,0,1,3.47-8.88,13.92,13.92,0,0,1,6.8-4.17,13.1,13.1,0,0,1-6.24-2.63,13.56,13.56,0,0,1-4.86-8.33,11.92,11.92,0,0,1-2.08,6.52A12.22,12.22,0,0,1,440,111.28Z"/><path class="cls-7" d="M456.91,120.89a6.18,6.18,0,0,1,1.55,1,6.39,6.39,0,0,1,1.87,3.23,4.72,4.72,0,0,1,1.17-3,4.65,4.65,0,0,1,2.29-1.4,4.37,4.37,0,0,1-2.11-.89,4.53,4.53,0,0,1-1.63-2.8,4,4,0,0,1-.7,2.19A4.13,4.13,0,0,1,456.91,120.89Z"/><path class="cls-7" d="M438.87,103.41a4.14,4.14,0,0,1,1.05.7,4.35,4.35,0,0,1,1.28,2.21,3.17,3.17,0,0,1,2.37-3,3,3,0,0,1-1.44-.61,3.11,3.11,0,0,1-1.12-1.92,2.71,2.71,0,0,1-.48,1.51A2.82,2.82,0,0,1,438.87,103.41Z"/><path class="cls-4" d="M70.88,136.46c-.78-.75-5-4.73-11.07-4.29-.89.06-4.41.32-6.79,2.55-6.17,5.77-3.81,24,6.85,28.66,5.95,2.61,12.27,0,14.41-1Q72.57,149.45,70.88,136.46Z"/><path class="cls-6" d="M64.12,157.71a.35.35,0,0,1-.26-.1c-2.65-2.56-3.86-5.22-3.57-7.9.35-3.29,2.84-5.74,4.3-6.9l-9,.41a.38.38,0,1,1,0-.75L65.8,142a.39.39,0,0,1,.38.26.38.38,0,0,1-.16.43s-4.54,2.88-5,7.11c-.25,2.43.87,4.88,3.35,7.27a.38.38,0,0,1,0,.53A.43.43,0,0,1,64.12,157.71Z"/><path class="cls-4" d="M192.4,136.46c.78-.75,5-4.73,11.07-4.29.89.06,4.41.32,6.79,2.55,6.17,5.77,3.81,24-6.85,28.66-5.95,2.61-12.27,0-14.41-1Q190.71,149.45,192.4,136.46Z"/><path class="cls-6" d="M199.16,157.71a.4.4,0,0,1-.27-.11.38.38,0,0,1,0-.53c2.48-2.39,3.6-4.84,3.35-7.27-.45-4.23-4.94-7.08-5-7.11a.37.37,0,0,1,.22-.69l10.27.47a.38.38,0,0,1,.36.4.39.39,0,0,1-.39.35l-9-.41c1.46,1.16,3.95,3.61,4.3,6.9.29,2.68-.91,5.34-3.57,7.9A.35.35,0,0,1,199.16,157.71Z"/><circle class="cls-5" cx="131.79" cy="121.83" r="71.38"/><path class="cls-5" d="M116.69,176.39s1.42,38.26-7.79,48.18S72.06,238,63.56,257.16s20.9,88.56,0,193.76c0,0,68.36,49.95,181,0,0,0-18.07-28.69-23.38-76.51s11.69-118-4.25-133.9-41.44-7.44-53.13-23.38-10.54-47.47-10.54-47.47S136.53,159,116.69,176.39Z"/><path class="cls-5" d="M62.29,139.34s14.77,71.55,70.35,69.26,69.28-58.24,70.38-91.4C203,117.2,111.72,52,62.29,139.34Z"/><path class="cls-6" d="M86.94,130.21a22.37,22.37,0,0,1,12.81-4.37c3.13-.11,7.37-.27,8.7,2.17a3.43,3.43,0,0,1,0,3.46c-1.44,2-5.15.25-11.12.27-7.85,0-12.92,3.06-13.45,1.94C83.46,132.87,86,131,86.94,130.21Z"/><path class="cls-6" d="M177.4,129a22.39,22.39,0,0,0-13-3.87c-3.13,0-7.37,0-8.61,2.5a3.44,3.44,0,0,0,.18,3.46c1.52,1.93,5.16,0,11.12-.16,7.85-.28,13,2.56,13.51,1.42C181,131.54,178.41,129.73,177.4,129Z"/><path class="cls-6" d="M130.82,159.73c-1.46,0-2.69-.07-3.23-.11a.5.5,0,0,1-.47-.54.49.49,0,0,1,.54-.46c4,.29,9.8,0,10.38-1.42.66-1.63-2.51-9.87-4.65-14.67a.5.5,0,1,1,.91-.41c.59,1.31,5.7,12.89,4.67,15.46C138.24,159.38,134,159.73,130.82,159.73Z"/><ellipse class="cls-4" cx="90.48" cy="162.63" rx="5.42" ry="8.7" transform="translate(-72.59 252.32) rotate(-89.72)"/><ellipse class="cls-4" cx="172.03" cy="163.03" rx="5.42" ry="8.7" transform="translate(8.15 334.25) rotate(-89.72)"/><path class="cls-8" d="M166.75,149.3a6.17,6.17,0,1,1-.65-8.69A6.18,6.18,0,0,1,166.75,149.3Z"/><path class="cls-8" d="M172.25,141c-.14-.12-1.32,2-2.88,1.86-1.14-.1-1.45-1.35-2.93-2.44a7.4,7.4,0,0,0-4.37-1.34,15.77,15.77,0,0,0,2.54,3.57c1.43,1.51,2.35,2.49,3.58,2.49C170.69,145.17,172.43,141.18,172.25,141Z"/><path class="cls-8" d="M108.58,152.18a6.17,6.17,0,1,1-.14-8.72A6.18,6.18,0,0,1,108.58,152.18Z"/><path class="cls-8" d="M93.62,144.58c.13-.13,1.5,1.87,3,1.6,1.13-.2,1.32-1.48,2.69-2.7a7.39,7.39,0,0,1,4.23-1.72,15.84,15.84,0,0,1-2.2,3.78c-1.28,1.63-2.11,2.69-3.34,2.8C95.55,148.57,93.46,144.75,93.62,144.58Z"/><path class="cls-6" d="M134.14,181.17a13.47,13.47,0,0,1-5.89-1.36.38.38,0,0,1-.17-.5.37.37,0,0,1,.5-.18,12.62,12.62,0,0,0,6.11,1.28A12.81,12.81,0,0,0,140,179a.37.37,0,0,1,.34.66,13.31,13.31,0,0,1-5.58,1.5Z"/><path class="cls-6" d="M130.48,208.58a80.62,80.62,0,0,1-15.43-1.39.52.52,0,0,1-.38-.6.5.5,0,0,1,.6-.38c.22,0,21.92,4.71,41.84-3.44a.5.5,0,1,1,.38.93A72.25,72.25,0,0,1,130.48,208.58Z"/><path class="cls-9" d="M137.37,230c-4.75-.86-6.18-3.51-13.2-8.06-8.69-5.63-11-6.58-13-5.75-2.6,1.05-2.07,4-5.89,7.82a23.92,23.92,0,0,1-7.76,5.11c-5.71,2.42-27.42,14.18-34,27.12-5.87,11.51-.25,25.08,1.56,30.18,7.16,20.13,10.78,65.71-5.39,178.07a165.26,165.26,0,0,0,17.2,7.09c31.57,11,58.39,9.69,74.2,8.77,45.31-2.65,81.88-18.72,101.82-29.14,0,0-28.53-56.31-28-99.88s7.44-99.1-4.25-112.91S177,225.13,172.52,221.94c-1.53-1.08-3.33-6.69-7.7-7.43-3.82-.66-7.45,2.27-9.57,4-6,4.85-5.64,9.22-10.62,11.16A12.81,12.81,0,0,1,137.37,230Z"/><path class="cls-6" d="M125.38,255.91a2.63,2.63,0,0,1-.49,0c-7.08-1.08-21.44-28.71-22-29.88a.5.5,0,1,1,.89-.46c5.07,9.8,16,28.55,21.31,29.36S138,237.34,140.43,230.2a.5.5,0,0,1,.63-.31.49.49,0,0,1,.31.63,130.87,130.87,0,0,1-5.4,13C131.94,251.74,128.38,255.91,125.38,255.91Z"/><path class="cls-6" d="M158.71,247.64c-6.63,0-14.22-17.06-14.54-17.79a.5.5,0,0,1,.26-.66.49.49,0,0,1,.65.26c.08.17,7.65,17.19,13.63,17.19,4.92,0,11.29-17.93,13.33-24.84a.52.52,0,0,1,.63-.34.51.51,0,0,1,.33.63C172.23,224.7,165.27,247.64,158.71,247.64Z"/><path class="cls-6" d="M151.53,309.08a.51.51,0,0,1-.5-.45l-8.16-78.75a.5.5,0,1,1,1-.1L152,308.53a.5.5,0,0,1-.45.55Z"/><circle class="cls-6" cx="153.86" cy="257.91" r="4.91"/><circle class="cls-6" cx="157.2" cy="280.14" r="4.91"/><path class="cls-6" d="M130.8,62.47A64.91,64.91,0,0,0,108.9,80c-11.9,15.07-8.37,28.41-19.59,38.87-8,7.46-19.51,13.56-36.29,15.84,0,0-20.7-92.15,71.37-88.1,0,0,37.13-10.12,56.34,1.69S214.51,98,210.26,134.72c0,0-13.28,2.56-23.58-5.66-4.9-3.91-6.89-8.49-9.34-14.08-17.05-39-22.31-44.39-27-47.45C146.62,65.08,140.52,62.35,130.8,62.47Z"/><path class="cls-9" d="M191.58,225.76s35.85,1.14,49.51,27.23,17.82,70.61,17.82,70.61-20.35,21.76-40.08,20.74-19.67-29.59-20.21-30.86S181.27,227.07,191.58,225.76Z"/><path class="cls-9" d="M90.08,233.05c-37.62,14.45-46.46,34.44-49,42.18-2.06,6.3-2.61,14.59-3.63,30.92-1.12,18.13-1.22,33.09-1.09,43.34a110.09,110.09,0,0,0,19.85,3.92c11.18,1.3,24.83,1.3,34.78-3.92,1.61-15.34,2.68-32.11,2.82-50.11A519.15,519.15,0,0,0,90.08,233.05Z"/><path class="cls-6" d="M225,344.46a.38.38,0,0,1-.17,0,.49.49,0,0,1-.29-.64c11-29.22-2.62-51.14-2.76-51.36a.5.5,0,0,1,.84-.54c.14.23,14,22.54,2.85,52.25A.5.5,0,0,1,225,344.46Z"/><path class="cls-6" d="M72.62,353.7a.49.49,0,0,1-.38-.18,46.68,46.68,0,0,1-3.58-55.23.5.5,0,0,1,.84.54A45.7,45.7,0,0,0,73,352.88a.5.5,0,0,1-.07.7A.47.47,0,0,1,72.62,353.7Z"/><path class="cls-10" d="M202.17,125.68c-14.08,0-20.54-18.93-26.24-35.68-2.65-7.76-5.15-15.09-8.1-19.31-9.08-13-32-13-32.24-12.94h0a.5.5,0,0,1,0-1,61.46,61.46,0,0,1,12.94,1.56c6.47,1.49,15.21,4.75,20.13,11.8,3,4.35,5.55,11.74,8.22,19.57,5.74,16.82,12.21,35.87,26.28,35a.48.48,0,0,1,.53.47.5.5,0,0,1-.46.53Z"/><path class="cls-10" d="M207.74,112.89h-.06c-7.52-.87-14.44-8.39-20.57-22.35a134.11,134.11,0,0,1-6.94-20.63.5.5,0,1,1,1-.23c.1.41,9.54,40.25,26.65,42.21a.5.5,0,0,1,0,1Z"/><path class="cls-10" d="M59,123.67a.51.51,0,0,1-.5-.5.5.5,0,0,1,.5-.5c13.84-.09,25.74-12.2,31-31.59,5-18.16,26.22-27.87,26.43-28a.5.5,0,0,1,.41.92c-.21.09-21,9.62-25.87,27.32-5.43,19.84-17.69,32.22-32,32.32Z"/><path class="cls-10" d="M59,112.89a.51.51,0,0,1-.44-.27.49.49,0,0,1,.21-.67c17.55-9.4,24.52-36.59,24.59-36.87a.5.5,0,0,1,.6-.36.51.51,0,0,1,.37.61c-.07.27-7.14,27.89-25.09,37.5A.53.53,0,0,1,59,112.89Z"/><path class="cls-10" d="M79.2,227.73a.45.45,0,0,1-.29-.1c-11.22-8.13-12.07-49.48-12.1-51.24a.52.52,0,0,1,.49-.51.52.52,0,0,1,.51.5c0,.42.87,42.6,11.68,50.45a.5.5,0,0,1-.29.9Z"/><path class="cls-10" d="M93.84,221.15a.51.51,0,0,1-.4-.2c-4.65-6.15-3.5-20.23-3.45-20.83a.5.5,0,1,1,1,.09c0,.14-1.16,14.29,3.26,20.14a.51.51,0,0,1-.1.7A.49.49,0,0,1,93.84,221.15Z"/><path class="cls-10" d="M197.46,219.63a.41.41,0,0,1-.19,0,.49.49,0,0,1-.27-.65c6.32-15.12,1.18-46.46,1.13-46.77a.51.51,0,0,1,.41-.58.5.5,0,0,1,.58.41c.21,1.3,5.24,31.94-1.2,47.33A.5.5,0,0,1,197.46,219.63Z"/><path class="cls-10" d="M180.73,215.84a.54.54,0,0,1-.22-.05.5.5,0,0,1-.23-.67c3.79-7.71,0-21.62,0-21.76a.5.5,0,0,1,.34-.62.51.51,0,0,1,.62.35c.16.59,3.92,14.43,0,22.47A.5.5,0,0,1,180.73,215.84Z"/><path class="cls-10" d="M121.53,169.51,147,167.65a14.28,14.28,0,0,1-10.62,9.87c-.31.06-7.33,1.34-12.06-3.5A12.34,12.34,0,0,1,121.53,169.51Z"/><path class="cls-4" d="M300,213a1.5,1.5,0,0,1-1.5-1.42,168.27,168.27,0,0,0-27.62-84.32,175.34,175.34,0,0,0-27,83,1.5,1.5,0,1,1-3-.19,178.31,178.31,0,0,1,28.71-86.37,1.52,1.52,0,0,1,1.25-.68h0a1.51,1.51,0,0,1,1.24.66,171.35,171.35,0,0,1,29.39,87.74,1.49,1.49,0,0,1-1.42,1.58Z"/><path class="cls-11" d="M270.69,232.38c-5.71-.17-19.76-.58-26.46-10.59a20.35,20.35,0,0,1-3-7.15v-6.5h59.92v8.58a18,18,0,0,1-2.36,5.68C292,233,275.53,232.52,270.69,232.38Z"/><path class="cls-4" d="M390.19,213h-.08a1.51,1.51,0,0,1-1.42-1.58,171.35,171.35,0,0,1,29.39-87.74,1.52,1.52,0,0,1,1.25-.66h0a1.51,1.51,0,0,1,1.24.68,178.18,178.18,0,0,1,28.72,86.37,1.5,1.5,0,0,1-3,.19,175.19,175.19,0,0,0-27-83,168.27,168.27,0,0,0-27.62,84.32A1.5,1.5,0,0,1,390.19,213Z"/><path class="cls-11" d="M419.48,232.38c5.7-.17,19.76-.58,26.46-10.59a20.49,20.49,0,0,0,3-7.15v-6.5H389v8.58a17.66,17.66,0,0,0,2.35,5.68C398.14,233,414.64,232.52,419.48,232.38Z"/><path class="cls-4" d="M270.23,129.83a4,4,0,0,1-1.07-7.85A279.56,279.56,0,0,1,420,122a4,4,0,0,1-2.16,7.7,271.47,271.47,0,0,0-146.51,0A3.66,3.66,0,0,1,270.23,129.83Z"/><rect class="cls-4" height="161.43" rx="8.91" width="17.82" x="335.66" y="92.8"/><path class="cls-4" d="M315.55,243.19h57.77a7.51,7.51,0,0,1,7.51,7.51v10.38a.75.75,0,0,1-.75.75h-71a.75.75,0,0,1-.75-.75V250.43A7.24,7.24,0,0,1,315.55,243.19Z"/></g></svg>