<?xml version="1.0" ?><svg viewBox="0 0 512 512" xmlns="http://www.w3.org/2000/svg"><defs><style>.cls-1{fill:#37ad36;}.cls-2{fill:#ff832f;}.cls-3{fill:#ffb833;}.cls-4{fill:#ff1a26;}.cls-5{fill:#fff3e3;}.cls-6{fill:#ffb08d;}.cls-7{fill:#ff8c5f;}.cls-8{fill:#383333;}.cls-9{fill:#fff;}.cls-10{fill:#aaeeea;}.cls-11{fill:#00ccc1;}</style></defs><title/><g id="Elearning"><path class="cls-1" d="M319,244.13s22.64,8.57,32.55,27.31,25.24,88.27,24.16,102S333,418.35,333,418.35l-17.17-55.2Z"/><path class="cls-1" d="M193.09,237.84a59.36,59.36,0,0,0-17.4,10.69c-14.07,12.55-16.54,27.55-25,68.29-9.91,47.77-11.37,50.53-8.91,58.7,7.74,25.71,34.21,38.44,44.76,42.85l14.54-55.95Q197.09,300.13,193.09,237.84Z"/><path class="cls-2" d="M480.32,481.68,30.89,482l-.69-12.8q15.89-32.49,31.76-65h388q16,32.64,31.9,65.28Z"/><polygon class="cls-3" points="481.7 469.25 30.18 469.25 67.07 393.76 444.81 393.76 481.7 469.25"/><path class="cls-4" d="M69.6,393.76h68.54a0,0,0,0,1,0,0v23.61a0,0,0,0,1,0,0H70.2a7.62,7.62,0,0,1-7.62-7.62v-9A7,7,0,0,1,69.6,393.76Z"/><path class="cls-5" d="M70.74,398h67.39a0,0,0,0,1,0,0v15a0,0,0,0,1,0,0H71.24A4.25,4.25,0,0,1,67,408.81v-7A3.75,3.75,0,0,1,70.74,398Z"/><path class="cls-1" d="M67.4,417.37h68.54a0,0,0,0,1,0,0V441a0,0,0,0,1,0,0H68a7.62,7.62,0,0,1-7.62-7.62v-9A7,7,0,0,1,67.4,417.37Z"/><path class="cls-5" d="M68.54,421.63h67.39a0,0,0,0,1,0,0v15a0,0,0,0,1,0,0H69a4.25,4.25,0,0,1-4.25-4.25v-7A3.75,3.75,0,0,1,68.54,421.63Z"/><path class="cls-6" d="M178.6,393.2c.06-1.23.11-2.45.16-3.7.5-14.42.19-25.8-.44-48-2.08-72.68-6.56-84,3.75-95.64,14.62-16.57,36-7.85,48.59-26.84,7.81-11.77,7-26.26,4.92-37a39.41,39.41,0,0,1,16.82-5.79c15.73-1.58,27.21,7.18,30,9.39-2.13,8.91-3.56,21.63,2.18,33.55,9.18,19.1,27.37,16.6,41.44,30.52,23,22.76,6.09,60.8,6.38,137.28,0,3.16.05,6.24.12,9.27C306.65,403.2,242.73,415.9,178.6,393.2Z"/><path class="cls-1" d="M332.36,387c0,3.16.05,6.24.12,9.27-25.83,7-89.75,19.67-153.88-3,.06-1.23.11-2.45.16-3.7,0,0,1-25.9-.44-48-2.72-42.56-22.1-54.39-12.78-77.12a53.88,53.88,0,0,1,16.7-21.47,46.76,46.76,0,0,1,17.26-7.5c53,48,109.74,3.57,109.74,3.57,5.7,2.59,11.5,5.49,16.74,10.67C349,272.44,332.07,310.48,332.36,387Z"/><path class="cls-3" d="M478.72,85.52s7,51.26,0,68-62.73,13.35-65.41,15.3-5.63,11.78-19.83,12.09c0,0,7-9.75,3.21-12.09s-11.26.95-17.42-4.85S366.13,98.66,369.35,89s66.48-12.07,77.2-12.6S476,75.6,478.72,85.52Z"/><path class="cls-3" d="M103.23,230.69a19.15,19.15,0,0,1,4.89,3.26,20.38,20.38,0,0,1,5.93,10.22,15,15,0,0,1,3.71-9.48,14.86,14.86,0,0,1,7.26-4.45,14,14,0,0,1-6.67-2.81,14.52,14.52,0,0,1-5.19-8.89,12.77,12.77,0,0,1-2.22,7A13.07,13.07,0,0,1,103.23,230.69Z"/><path class="cls-3" d="M374.83,230.69a19.15,19.15,0,0,1,4.89,3.26,20.38,20.38,0,0,1,5.93,10.22,14.66,14.66,0,0,1,11-13.93,14,14,0,0,1-6.67-2.81,14.47,14.47,0,0,1-5.19-8.89,12.77,12.77,0,0,1-2.22,7A13.07,13.07,0,0,1,374.83,230.69Z"/><path class="cls-3" d="M128.09,85.6a25.35,25.35,0,0,1,6.4,4.26,26.61,26.61,0,0,1,7.75,13.38,19.67,19.67,0,0,1,4.85-12.41A19.45,19.45,0,0,1,156.58,85a18.33,18.33,0,0,1-8.72-3.68,19,19,0,0,1-6.78-11.63,16.74,16.74,0,0,1-2.91,9.11A17.1,17.1,0,0,1,128.09,85.6Z"/><path class="cls-7" d="M331.34,129.55c.85-.77,5.44-4.8,11.8-4.12.93.1,4.63.5,7.05,2.92,6.28,6.29,3.15,25.36-8.22,29.91-6.36,2.54-12.92-.41-15.13-1.52Z"/><path d="M337.71,152.25a.5.5,0,0,1-.34-.87c2.67-2.4,3.93-4.91,3.75-7.44-.32-4.41-4.9-7.54-4.95-7.57a.51.51,0,0,1,.32-.92l10.79.87a.49.49,0,0,1,.46.53.49.49,0,0,1-.54.46l-9.16-.73c1.52,1.36,3.83,3.95,4.07,7.28.21,2.86-1.16,5.64-4.07,8.26A.46.46,0,0,1,337.71,152.25Z"/><path class="cls-7" d="M192.56,129.92c-.85-.76-5.47-4.77-11.82-4-.93.1-4.62.53-7,3-6.24,6.33-3,25.38,8.43,29.84,6.37,2.5,12.91-.49,15.11-1.62Q194.91,143.5,192.56,129.92Z"/><path d="M186.35,152.66a.46.46,0,0,1-.33-.13c-2.93-2.6-4.31-5.37-4.13-8.23.22-3.34,2.52-5.94,4-7.31l-9.16.8a.52.52,0,0,1-.54-.46.5.5,0,0,1,.46-.54l10.79-.94a.51.51,0,0,1,.51.33.49.49,0,0,1-.19.58s-4.61,3.2-4.89,7.61c-.16,2.54,1.11,5,3.79,7.41a.5.5,0,0,1-.33.88Z"/><path class="cls-7" d="M234.11,212.39s22.72,10.18,48.44,1.78V190.42l-46.78-.8Q234.93,201,234.11,212.39Z"/><circle class="cls-6" cx="261.25" cy="121.54" r="77.2"/><path class="cls-6" d="M338.18,128c-4.35,36.76-26.12,66.77-56.16,76.47a72.34,72.34,0,0,1-46.12-.83c-28.47-10.46-48.49-39.36-51.69-74.33C184.21,129.26,280.84,60.68,338.18,128Z"/><path class="cls-8" d="M212.11,119.26a23.68,23.68,0,0,1,13.36-5c3.29-.22,7.74-.51,9.22,2a3.61,3.61,0,0,1,.05,3.64c-1.45,2.13-5.41.42-11.69.61-8.26.27-13.5,3.61-14.09,2.45C208.53,122.17,211.1,120.09,212.11,119.26Z"/><path class="cls-8" d="M307.26,120.76a23.57,23.57,0,0,0-13-5.88c-3.26-.43-7.69-1-9.33,1.39a3.63,3.63,0,0,0-.31,3.63c1.31,2.23,5.38.79,11.63,1.41,8.22.82,13.22,4.52,13.89,3.4C310.63,123.9,308.21,121.64,307.26,120.76Z"/><path d="M260.29,151.89c-3.32,0-7.19-.41-8-2.26-1.14-2.7,3.64-14.25,4.61-16.54a.75.75,0,0,1,1.38.59C256,139.12,253,147.49,253.7,149c.51,1.23,6,1.58,10.72,1.16a.73.73,0,0,1,.81.68.74.74,0,0,1-.68.81C263.66,151.77,262.05,151.89,260.29,151.89Z"/><path d="M259.05,179.28a11,11,0,0,1-5-1.11.49.49,0,0,1-.22-.67.5.5,0,0,1,.67-.22c4,2,9,.32,9.08.3a.5.5,0,0,1,.64.31.5.5,0,0,1-.31.63A16.12,16.12,0,0,1,259.05,179.28Z"/><ellipse class="cls-7" cx="220.34" cy="160.73" rx="9.16" ry="5.7" transform="translate(-3.73 5.24) rotate(-1.35)"/><ellipse class="cls-7" cx="304.77" cy="158.74" rx="9.16" ry="5.7" transform="matrix(1, -0.02, 0.02, 1, -3.66, 7.23)"/><circle class="cls-9" cx="288.83" cy="138.73" r="9.47"/><circle class="cls-8" cx="287.94" cy="140.5" r="6.77"/><circle class="cls-9" cx="286.09" cy="136.9" r="1.97"/><circle class="cls-9" cx="227.12" cy="138.33" r="9.47"/><circle class="cls-8" cx="228.3" cy="140.16" r="6.77"/><circle class="cls-9" cx="230.39" cy="136.68" r="1.97"/><path class="cls-9" d="M246,164.44a37.1,37.1,0,0,1,29.65.09,17.78,17.78,0,0,1-8.64,7.56,16.29,16.29,0,0,1-21-7.65Z"/><path class="cls-1" d="M294.58,231.33s22.78,5.94,37.35,10.42,20.09,22.89,22.73,46.66-8.86,25.45-8.86,25.45-38.92-8.41-39.64-8.65-26.41-12.48-26.41-12.48Z"/><path class="cls-1" d="M226.11,224.46s29.51,26.83,68.47,6.87l27.16,14L286.25,270.9l-41.78,5-56-36.68s5.81-3.55,16-5.19S226.11,224.46,226.11,224.46Z"/><rect class="cls-10" height="157.59" rx="11.1" width="227.2" x="144.98" y="266.73"/><rect class="cls-11" height="84.69" rx="10.14" width="54.7" x="231.23" y="352.41"/><rect class="cls-11" height="12.35" rx="5.67" width="81.63" x="217.76" y="432.95"/><circle class="cls-10" cx="258.92" cy="395.11" r="11.52"/><path class="cls-8" d="M182.11,125.79s1.49,18.73,5.39,18.65,5.82-24.18,2.78-31.86c0,0,11.68-1.84,10.72-17.93,0,0,25-33.37,50.42-31.69s32.58,7.8,45.82-.06c0,0,12.52,27.5,25.25,32,0,0-4.35,15.43,5.76,19.26,0,0,0,28.39,5,28.58s8.56-31.51,8.56-31.51c.93-1.12,10-12.31,6.25-27.13-3.82-15.19-17.64-20.71-18.89-21.19,0,0-4.14-13.62-19-10.74,0,0-27.82-23.77-61.91-19.69s-86.53,40.61-71.59,64.35Z"/><path class="cls-4" d="M383.55,114.29,403.08,119h54.49l18.5-4.74a.52.52,0,0,0,0-1l-45.89-12a.57.57,0,0,0-.26,0l-46.38,12A.52.52,0,0,0,383.55,114.29Z"/><path class="cls-4" d="M458.24,130a.52.52,0,0,1-.4.51,117.9,117.9,0,0,1-29.16,3.2,118.47,118.47,0,0,1-25.63-3.2.53.53,0,0,1-.4-.51V117.26a.53.53,0,0,1,.53-.53h54.53a.53.53,0,0,1,.53.53Z"/><rect class="cls-4" height="20.46" rx="0.98" width="3.12" x="390.61" y="113.27"/><path class="cls-9" d="M329.85,84.75h0C324.24,84.41,319,81.4,314.66,76A34.73,34.73,0,0,1,309.75,68a.5.5,0,0,1,.27-.65.51.51,0,0,1,.66.28c.06.15,6.39,15.4,19.2,16.17a.52.52,0,0,1,.47.53A.5.5,0,0,1,329.85,84.75Z"/><path class="cls-9" d="M336.45,104.55h-.07a7.53,7.53,0,0,1-5.4-3.1c-3-4.23-1.68-11.08-1.62-11.37a.5.5,0,0,1,.59-.39.51.51,0,0,1,.39.59c0,.07-1.32,6.72,1.45,10.59a6.59,6.59,0,0,0,4.72,2.69.51.51,0,0,1,.44.56A.51.51,0,0,1,336.45,104.55Z"/><path class="cls-9" d="M197.25,85.87a.45.45,0,0,1-.25-.07.5.5,0,0,1-.18-.68c8.86-14.89,40.74-34.33,55.52-30.81a216.93,216.93,0,0,0,30,4.63.5.5,0,0,1,.46.54.52.52,0,0,1-.54.46,217.94,217.94,0,0,1-30.17-4.65c-6.54-1.57-17.54,1.61-29.42,8.5-11.14,6.47-21,15-25,21.84A.51.51,0,0,1,197.25,85.87Z"/><path class="cls-9" d="M184.21,90.67a.51.51,0,0,1-.5-.44c-1.06-10,4.93-20.19,17.31-29.47A99.78,99.78,0,0,1,220.15,49.7a.49.49,0,0,1,.65.27.5.5,0,0,1-.27.65c-.38.16-38.3,16.14-35.82,39.5a.5.5,0,0,1-.45.55Z"/></g></svg>