<?xml version="1.0" ?><svg viewBox="0 0 512 512" xmlns="http://www.w3.org/2000/svg"><defs><style>.cls-1,.cls-7{fill:#383333;}.cls-2{fill:#fff;}.cls-3{fill:#ffb833;}.cls-4{fill:#ff8c5f;}.cls-5{fill:#ffb08d;}.cls-6{fill:#ff535c;}.cls-7{fill-rule:evenodd;}.cls-8{fill:#aaeeea;}</style></defs><title/><g data-name="Playing Kite" id="Playing_Kite"><path class="cls-1" d="M143.34,55.1S101.13,38.71,73.75,80.44,35.93,198.58,78.31,222.31s73.4-15.39,56.26-40.81S95.25,76.14,143.34,55.1Z"/><path class="cls-1" d="M203.44,55.1S245.66,38.71,273,80.44s37.81,118.14-4.57,141.87-73.4-15.39-56.26-40.81S251.54,76.14,203.44,55.1Z"/><path class="cls-2" d="M91.74,212.6a.45.45,0,0,1-.27-.08c-18.17-12.1-26.6-33.7-24.39-62.49A156.26,156.26,0,0,1,76,109.84a.51.51,0,0,1,.65-.28.5.5,0,0,1,.28.65,154.94,154.94,0,0,0-8.83,39.92c-1.52,19.8,1.4,46.55,23.94,61.56a.5.5,0,0,1,.14.69A.48.48,0,0,1,91.74,212.6Z"/><path class="cls-2" d="M120.73,208c-9.26,0-16.7-3-22.11-8.92-12.19-13.33-10-37.29-10-37.53a.52.52,0,0,1,.55-.45.52.52,0,0,1,.45.55c0,.24-2.19,23.76,9.7,36.76,5.29,5.78,12.63,8.68,21.74,8.59h0a.51.51,0,0,1,.5.5.5.5,0,0,1-.5.5Z"/><path class="cls-2" d="M263.24,221.13a.5.5,0,0,1-.38-.82c27.86-33.25,7.29-102.57,7.08-103.27a.5.5,0,0,1,.95-.29c.22.7,20.94,70.54-7.27,104.2A.48.48,0,0,1,263.24,221.13Z"/><path class="cls-2" d="M229,217.15a.5.5,0,0,1-.24-.94c18.67-9.84,15-54.65,15-55.1a.49.49,0,0,1,.45-.54.5.5,0,0,1,.54.45,138.28,138.28,0,0,1-.42,24.1c-1.9,16.94-7,27.7-15.08,32A.46.46,0,0,1,229,217.15Z"/><path class="cls-3" d="M39.56,239.54a27.84,27.84,0,0,1,7,4.64A28.93,28.93,0,0,1,55,258.74a21.42,21.42,0,0,1,5.28-13.5,21.13,21.13,0,0,1,10.33-6.33,19.89,19.89,0,0,1-9.49-4,20.58,20.58,0,0,1-7.38-12.66,18.27,18.27,0,0,1-3.17,9.92A18.57,18.57,0,0,1,39.56,239.54Z"/><path class="cls-3" d="M266.16,408.21a21.36,21.36,0,0,1,5.33,3.54,22.23,22.23,0,0,1,6.45,11.13,16.34,16.34,0,0,1,4-10.32,16.14,16.14,0,0,1,7.9-4.84,15.25,15.25,0,0,1-7.25-3.06A15.81,15.81,0,0,1,277,395a13.93,13.93,0,0,1-2.42,7.58A14.23,14.23,0,0,1,266.16,408.21Z"/><path class="cls-3" d="M309.7,63.51A21.68,21.68,0,0,1,315,67.06a22.15,22.15,0,0,1,6.45,11.13,16.4,16.4,0,0,1,4-10.32A16.16,16.16,0,0,1,333.41,63,15.31,15.31,0,0,1,326.15,60a15.86,15.86,0,0,1-5.65-9.68,13.87,13.87,0,0,1-2.42,7.58A14.21,14.21,0,0,1,309.7,63.51Z"/><path class="cls-4" d="M239.13,123.41c.78-.76,5-4.75,11.09-4.3.89.06,4.42.32,6.8,2.55,6.18,5.78,3.82,24-6.86,28.72-6,2.62-12.3,0-14.44-1Q237.43,136.42,239.13,123.41Z"/><path class="cls-1" d="M245.9,144.7a.4.4,0,0,1-.27-.11.38.38,0,0,1,0-.53c2.48-2.4,3.61-4.85,3.35-7.29-.44-4.23-5-7.09-5-7.12a.37.37,0,0,1-.16-.43.37.37,0,0,1,.37-.26l10.3.47a.38.38,0,0,1,.36.4.38.38,0,0,1-.39.35l-9-.41c1.46,1.16,4,3.61,4.31,6.92.28,2.68-.92,5.34-3.58,7.91A.35.35,0,0,1,245.9,144.7Z"/><path class="cls-4" d="M113,123.41c-.78-.76-5-4.75-11.09-4.3-.89.06-4.42.32-6.8,2.55-6.18,5.78-3.82,24,6.86,28.72,6,2.62,12.3,0,14.44-1Q114.7,136.42,113,123.41Z"/><path class="cls-1" d="M106.23,144.7a.35.35,0,0,1-.26-.1c-2.66-2.57-3.86-5.23-3.58-7.91.35-3.31,2.85-5.76,4.31-6.92l-9,.41a.36.36,0,0,1-.39-.35.38.38,0,0,1,.36-.4l10.3-.47a.36.36,0,0,1,.37.26.37.37,0,0,1-.16.43s-4.55,2.89-5,7.12c-.26,2.44.87,4.89,3.35,7.29a.38.38,0,0,1,0,.53A.4.4,0,0,1,106.23,144.7Z"/><circle class="cls-5" cx="175.6" cy="112.63" r="72.45"/><path class="cls-5" d="M248.05,119.55c-5.58,36.36-26.57,65.26-55.13,73.81a62.65,62.65,0,0,1-34.23.52c-28.18-7.82-49.28-36.44-54.44-72.94C108,81,142.58,51.43,180.3,53.53,214.74,55.44,244.13,83.29,248.05,119.55Z"/><path class="cls-5" d="M191.5,178.9s-.24,24.84,5.9,32.13,48,6.47,55.62,30.44-16.26,102.65-5.35,192c0,0-103.59,33-147.81,0,0,0,11.09-58.61,10-94.88s-19.52-97.15-4.6-110.11,39.52-14.24,46.42-22.66,3.79-30.67,3.79-30.67S181.46,165.55,191.5,178.9Z"/><path class="cls-6" d="M236,223.68c-3.62-1.39-7.51-2.75-11.65-4-5.9-1.81-11.5-3.2-16.69-4.26-4,2.46-23.86,14.22-46.82,7.41a52.72,52.72,0,0,1-19.44-10.71,124,124,0,0,0-25.29,8.73h0s-14.44,2.11-26.32,18c-15.6,20.91,19.76,82.14,9.63,144.08a140.25,140.25,0,0,1-16.57,46.4c13.77,8.5,48.8,27.53,96.33,25.61a169.14,169.14,0,0,0,72-19.5s2.29-125.62,3.35-167.28h0c0-21-2-33.67-9.83-40.25A20.8,20.8,0,0,0,236,223.68Z"/><path class="cls-1" d="M219.14,109.63a24,24,0,0,0-13.77-4.5c-3.35-.08-7.88-.19-9.28,2.43a3.66,3.66,0,0,0,.1,3.7c1.57,2.1,5.51.2,11.89.14,8.4-.07,13.86,3.11,14.41,1.9C222.89,112.43,220.19,110.42,219.14,109.63Z"/><path class="cls-1" d="M133.26,110.2A23.93,23.93,0,0,1,147.11,106c3.35,0,7.88,0,9.22,2.61a3.64,3.64,0,0,1-.16,3.7c-1.61,2.07-5.52.09-11.89-.09-8.4-.25-13.92,2.83-14.45,1.62C129.45,112.93,132.18,111,133.26,110.2Z"/><path class="cls-1" d="M172.81,141.32c-1.81,0-3.37-.12-4-.17a.5.5,0,1,1,.09-1c4.24.36,10.5.16,11.15-1.4.73-1.75-2.55-10.61-4.78-15.78a.49.49,0,0,1,.26-.66.49.49,0,0,1,.65.26c.61,1.41,5.92,13.85,4.79,16.56C180.2,140.94,176.1,141.32,172.81,141.32Z"/><path class="cls-1" d="M176.76,172.2a16.47,16.47,0,0,1-5.23-.89.36.36,0,0,1-.22-.48.37.37,0,0,1,.48-.22c.05,0,5.22,1.91,9.34-.06a.38.38,0,0,1,.5.17.37.37,0,0,1-.18.5A10.81,10.81,0,0,1,176.76,172.2Z"/><ellipse class="cls-4" cx="215.76" cy="150.25" rx="9.31" ry="5.8" transform="matrix(1, -0.02, 0.02, 1, -2.54, 3.72)"/><ellipse class="cls-4" cx="139.45" cy="152.65" rx="9.31" ry="5.8" transform="translate(-2.59 2.41) rotate(-0.98)"/><path class="cls-2" d="M162.13,156.09a56.73,56.73,0,0,0,28.62,0,14.79,14.79,0,0,1-28.62,0Z"/><path class="cls-6" d="M223.92,220.63s25.61,4.73,37.22,19.35S299,343.17,299,343.17l-37.53,17.2s-34.28-58.91-37.72-93.73S223.92,220.63,223.92,220.63Z"/><path class="cls-5" d="M316.17,252a686,686,0,0,1-43.42,75.67c-6.76,10.15-15.77,22.69-11.3,32.68,4.07,9.1,18,13.1,26.78,12.18,35.83-3.73,51.59-95.8,53.31-106.34Z"/><path class="cls-1" d="M173.66,196.57a49.55,49.55,0,0,1-18-3.11.5.5,0,1,1,.36-.93c16.89,6.62,36.58.42,36.77.35a.5.5,0,0,1,.63.32.49.49,0,0,1-.32.63A70.67,70.67,0,0,1,173.66,196.57Z"/><path class="cls-7" d="M218.33,127c-.12-.1-1.16,1.74-2.52,1.62-1-.09-1.27-1.19-2.55-2.15a6.48,6.48,0,0,0-3.82-1.19,13.9,13.9,0,0,0,2.2,3.13c1.24,1.33,2,2.19,3.12,2.19C217,130.61,218.49,127.12,218.33,127Z"/><path class="cls-7" d="M213.26,126.46a11.34,11.34,0,0,0-6.88-1.58c-4.27.28-8.07,4.51-8.07,5s3.86-2.79,8-2.77,5.38,3.15,8.27,3.49Z"/><path class="cls-7" d="M134.55,127c.13-.1,1.17,1.74,2.53,1.62,1-.09,1.27-1.19,2.55-2.15a6.45,6.45,0,0,1,3.82-1.19,13.9,13.9,0,0,1-2.2,3.13c-1.25,1.33-2.05,2.19-3.13,2.19C135.94,130.61,134.39,127.12,134.55,127Z"/><path class="cls-7" d="M139.63,126.46a11.32,11.32,0,0,1,6.87-1.58c4.28.28,8.07,4.51,8.07,5s-3.86-2.79-8-2.77-5.39,3.15-8.27,3.49Z"/><path class="cls-6" d="M96.13,231.91c16.56,7.55,26.24,17,31.86,23.76,7.87,9.53,14,28.23,25.89,65.24,4.73,14.69,11.92,37.84,12,37.95l-37.52,17.2c-7.51-13.42-13.35-25-17.57-33.8C78.6,275.43,83.89,255.51,86.66,248A53.57,53.57,0,0,1,96.13,231.91Z"/><path class="cls-5" d="M183.74,267.32c-.69,1.12-1.79,2.88-3.13,5-5.4,8.67-20.9,33.69-41,71-11.54,21.43-13.85,27-11.29,32.67,4.07,9.1,18,13.1,26.77,12.19,35.83-3.74,51.6-95.8,53.32-106.35Z"/><path class="cls-8" d="M334,119.07,225.07,196.72a1080.31,1080.31,0,0,1,53,98.47A1083.85,1083.85,0,0,1,322.6,404.08a773.37,773.37,0,0,0,74.8-108.89A772.33,772.33,0,0,0,439.06,210,378.64,378.64,0,0,0,334,119.07Z"/><path class="cls-1" d="M439.06,211a.92.92,0,0,1-.36-.07C356.75,179,226.52,197.52,225.21,197.71a1,1,0,0,1-1.13-.85,1,1,0,0,1,.85-1.13C226.24,195.54,357,177,439.42,209a1,1,0,0,1-.36,1.93Z"/><path class="cls-1" d="M359.13,474.93c-10.22,0-19.45-2.9-26.49-8.67-14.27-11.72-18.18-33.88-11-62.43,14.24-56.71,16.57-131.07,16-183.47C337,163.55,333,119.6,333,119.17a1,1,0,0,1,2-.19c0,.44,4.07,44.45,4.68,101.34.56,52.52-1.77,127.08-16.07,184-7,27.75-3.3,49.2,10.34,60.39,12.71,10.43,33.09,11,53.2,1.45,24.68-11.7,51-40.07,50.95-84.62-.17-103.37,4.77-105.3,28.49-114.61l.38-.15a1,1,0,0,1,.73,1.86l-.38.15c-22.67,8.89-27.39,10.75-27.22,112.75C440.14,427,413.2,456,388,468A68,68,0,0,1,359.13,474.93Z"/><path class="cls-3" d="M323.37,401s-10.89-10.29-12.94-7.92-.47,6.47-2.05,11.05,13.79,1.75,13.79,1.75,6.91,8.19,9.9,5.82-1.12-3.94.93-7.57S338.46,397.06,323.37,401Z"/><path class="cls-6" d="M341.46,466.75s-14.48,3.82-13.55,6.81,5.24,3.81,8.3,7.57S345,470.34,345,470.34s10.61-1.55,10.17-5.33-3.94-1.14-5.94-4.79S346.11,451.88,341.46,466.75Z"/><path class="cls-3" d="M402.27,457.9s-.39-15-3.52-14.75-4.91,4.23-9.27,6.34,8.5,11,8.5,11-.92,10.68,2.86,11.12,2-3.58,6-4.69S415.69,465.83,402.27,457.9Z"/><path class="cls-6" d="M436.83,409.65s-8.84-12.09-11.29-10.14-1.64,6.28-4,10.49,13.25,4.22,13.25,4.22,5.31,9.31,8.67,7.52-.38-4.08,2.29-7.28S452.37,408.55,436.83,409.65Z"/><path class="cls-3" d="M440.6,329s-13.25-7-14.59-4.16,1.28,6.36,1,11.19,13.75-2,13.75-2,8.86,6,11.1,2.95-2.14-3.5-1.14-7.55S454.09,321.23,440.6,329Z"/><path class="cls-6" d="M467.59,267.85s2-14.85-1.17-15.12-5.52,3.42-10.15,4.82,6.68,12.2,6.68,12.2-2.58,10.4,1.09,11.43,2.54-3.22,6.68-3.69S479.61,277.79,467.59,267.85Z"/><path class="cls-1" d="M116.41,469.63a.5.5,0,0,1,0-1c66-.9,107.14-15.56,122.39-43.58,14.36-26.38,2.8-56.73-9.44-88.87-12-31.57-24.46-64.22-10.13-92.91,15.16-30.39,56.3-48.1,122.26-52.65a.52.52,0,0,1,.53.46.5.5,0,0,1-.47.54c-65.58,4.52-106.43,22-121.43,52.09C206,272,218.34,304.46,230.29,335.83c11.78,30.93,24,62.91,9.38,89.7-15.44,28.36-56.91,43.2-123.26,44.1Z"/><path class="cls-5" d="M181,271.81c1.71-3,4.47-7.84,7.67-14,8.93-17,10.42-22.79,17.13-25.94,4.37-2,8.78-2,12.94-1.87s9.82.21,11.6,3.51a5.31,5.31,0,0,1,.23,4.58,5,5,0,0,1-2.52,2.36s6.31,3.47,0,7.58c0,0,2.68,3.94-4.26,6.31,0,0,5.78,1.92-.5,7.2s-8.18,21.84-16.7,24.2S181.75,276,181,271.81Z"/><path class="cls-1" d="M252.9,345.2h0a.51.51,0,0,1-.49-.51,120.38,120.38,0,0,1,1.81-19.93,108.74,108.74,0,0,1,3.58-14.53c1.47-4.77,2.53-8.22,2.33-14.25-.32-9.41-3.48-17.5-5.18-21.85a81,81,0,0,0-6-12.3.5.5,0,0,1,.86-.51,81.59,81.59,0,0,1,6.11,12.45c1.72,4.4,4.92,12.6,5.25,22.18.21,6.19-.88,9.71-2.37,14.57a106.7,106.7,0,0,0-3.56,14.41,120.6,120.6,0,0,0-1.79,19.77A.51.51,0,0,1,252.9,345.2Z"/><path class="cls-1" d="M126.43,373.18A.49.49,0,0,1,126,373c-14-20.38-29.75-62.36-29.91-62.79a.51.51,0,0,1,.3-.64.5.5,0,0,1,.64.3c.16.42,15.81,42.28,29.79,62.57a.49.49,0,0,1-.13.69A.47.47,0,0,1,126.43,373.18Z"/><path class="cls-1" d="M151.61,320.37a.51.51,0,0,1-.47-.33,174.7,174.7,0,0,1-5.34-17.57,202.87,202.87,0,0,1-3.82-20c-1.25-8.21-2.23-14.69-6.09-22.49a61,61,0,0,0-11.07-15.5.5.5,0,0,1,0-.71.51.51,0,0,1,.71,0,62.52,62.52,0,0,1,11.25,15.75c3.93,8,4.92,14.5,6.17,22.79.85,5.54,1.8,11.83,3.81,19.92a175.32,175.32,0,0,0,5.31,17.47.5.5,0,0,1-.3.64A.51.51,0,0,1,151.61,320.37Z"/><path class="cls-1" d="M213.27,257.8a.36.36,0,0,1-.27-.12.38.38,0,0,1,0-.53c.21-.19,5.23-4.63,10.84-3.13a.38.38,0,0,1,.27.46.37.37,0,0,1-.46.26c-5.23-1.39-10.1,2.92-10.15,3A.38.38,0,0,1,213.27,257.8Z"/><path class="cls-1" d="M228,248.44a.42.42,0,0,1-.21-.06c-5.36-3.47-12.42-.28-12.5-.25a.36.36,0,0,1-.49-.18.37.37,0,0,1,.18-.5c.3-.14,7.51-3.4,13.22.3a.38.38,0,0,1-.2.69Z"/><path class="cls-1" d="M228,240.87a.38.38,0,0,1-.24-.09c-5.16-4.17-12.46-2.35-12.53-2.33a.38.38,0,0,1-.46-.27.38.38,0,0,1,.27-.46c.32-.08,7.75-1.93,13.19,2.48a.38.38,0,0,1,.06.53A.37.37,0,0,1,228,240.87Z"/><path class="cls-1" d="M190.75,59.85c-2.39,5.59-11.54,25.09-34,36.51a73.46,73.46,0,0,1-42.81,7.17A61.08,61.08,0,0,0,110,114.94a63.21,63.21,0,0,0,0,28.36,75.5,75.5,0,0,1-8.64-15.65c-.86-2.14-6.75-17.08-5.37-33.58,1.8-21.63,15.8-47.29,41.76-57.52,16.88-6.65,38.18-7.23,62.55,3.63,0,0,31.89-6.74,47.73,22.27s7.43,70.68-8.57,84.4c0,0,5.51-23.23,1.27-37.51C240.75,109.34,203.67,102.22,190.75,59.85Z"/><path class="cls-2" d="M121,96.74a23.44,23.44,0,0,1-6.54-.88.5.5,0,1,1,.28-1c25.49,7.33,67.53-36.59,68-37a.5.5,0,0,1,.73.69A212.2,212.2,0,0,1,158.89,80C143.82,91.14,131.11,96.74,121,96.74Z"/><path class="cls-2" d="M117.67,87.87a25.38,25.38,0,0,1-15.18-4.47.51.51,0,0,1-.11-.7.49.49,0,0,1,.7-.11c19.14,13.81,53-10.19,53.38-10.44a.5.5,0,0,1,.7.12.51.51,0,0,1-.11.7,104.33,104.33,0,0,1-19.72,10.59C130.1,86.43,123.49,87.87,117.67,87.87Z"/><path class="cls-2" d="M248.55,101.68c-23.45,0-45.29-31.11-45.52-31.44a.5.5,0,0,1,.13-.7.49.49,0,0,1,.69.13c.24.34,24,34.25,48.24,30.76a.49.49,0,0,1,.56.42.51.51,0,0,1-.42.57A26.9,26.9,0,0,1,248.55,101.68Z"/><path class="cls-2" d="M243.1,89.23c-4.55,0-9.52-1.42-14.69-4.22A53.31,53.31,0,0,1,218,77.58a.5.5,0,1,1,.69-.72c.17.16,16.81,15.92,31.33,10.07a.5.5,0,1,1,.37.93A19.45,19.45,0,0,1,243.1,89.23Z"/><path class="cls-2" d="M99.39,120a.49.49,0,0,1-.45-.3C82.43,82,113.08,53.34,113.4,53.05a.5.5,0,0,1,.67.74c-.31.28-30.43,28.46-14.22,65.5a.5.5,0,0,1-.26.66A.45.45,0,0,1,99.39,120Z"/><path class="cls-2" d="M254.53,120.58h-.11a.5.5,0,0,1-.38-.6c8.1-36.26-10.74-63.83-10.93-64.1a.5.5,0,0,1,.12-.7.51.51,0,0,1,.7.13c.19.27,19.28,28.19,11.09,64.89A.5.5,0,0,1,254.53,120.58Z"/></g></svg>