<?xml version="1.0" ?><svg viewBox="0 0 512 512" xmlns="http://www.w3.org/2000/svg" xmlns:xlink="http://www.w3.org/1999/xlink"><defs><style>.cls-1,.cls-11,.cls-13,.cls-17,.cls-7{fill:none;}.cls-2{fill:#ffb833;}.cls-3{fill:#aaeeea;}.cls-4,.cls-8{fill:#00ccc1;}.cls-5{clip-path:url(#clip-path);}.cls-6{fill:#fff3e3;}.cls-7{stroke:#00ccc1;stroke-width:3px;}.cls-11,.cls-13,.cls-17,.cls-7{stroke-linecap:round;stroke-linejoin:round;}.cls-11,.cls-14,.cls-17,.cls-7,.cls-8{fill-rule:evenodd;}.cls-9{fill:#ffb08d;}.cls-10,.cls-14{fill:#383333;}.cls-11,.cls-13{stroke:#383333;}.cls-12{fill:#ff8c5f;}.cls-13{stroke-width:0.75px;}.cls-15{fill:#fff;}.cls-16{fill:#ff535c;}.cls-17{stroke:#fff;}</style><clipPath id="clip-path"><path class="cls-1" d="M261.62,100.68c4.55-7.72,7.82-19.86,7.57-30.88-.42-18.6-10.84-32-15.95-37.61a1.5,1.5,0,0,0-2.21,0c-5.11,5.63-15.53,19-15.95,37.61-.25,11,3,23.16,7.57,30.88a52.89,52.89,0,0,0,9.67.87A53.71,53.71,0,0,0,261.62,100.68Z"/></clipPath></defs><title/><g data-name="Business Growt" id="Business_Growt"><rect class="cls-2" height="16.53" rx="1.08" transform="translate(374.79 128.87) rotate(180)" width="2.75" x="186.02" y="56.17"/><rect class="cls-2" height="16.53" rx="1.08" transform="translate(122.96 251.83) rotate(-90)" width="2.75" x="186.02" y="56.17"/><rect class="cls-2" height="16.53" rx="1.08" transform="translate(323.89 668.05) rotate(180)" width="2.75" x="160.57" y="325.76"/><rect class="cls-2" height="16.53" rx="1.08" transform="translate(-172.08 495.97) rotate(-90)" width="2.75" x="160.57" y="325.76"/><rect class="cls-2" height="20.26" rx="1.08" transform="translate(645.95 160.49) rotate(180)" width="3.38" x="321.28" y="70.11"/><rect class="cls-2" height="20.26" rx="1.08" transform="translate(242.73 403.22) rotate(-90)" width="3.38" x="321.28" y="70.11"/><rect class="cls-3" height="211.6" rx="13.84" width="253.6" x="43.41" y="83.43"/><path class="cls-4" d="M237.43,82.29s-4.81,2.09-5.65,6.07c-.61,2.92.52,15.6,1.16,22.15a1.18,1.18,0,0,0,2.21.46,54,54,0,0,1,9.5-12.6Z"/><path class="cls-4" d="M266.1,82.29s4.81,2.09,5.65,6.07c.62,2.92-.52,15.6-1.16,22.15a1.18,1.18,0,0,1-2.21.46,53.46,53.46,0,0,0-9.5-12.6Z"/><g class="cls-5"><path class="cls-2" d="M261.62,100.68c4.55-7.72,7.82-19.86,7.57-30.88-.42-18.6-10.84-32-15.95-37.61a1.5,1.5,0,0,0-2.21,0c-5.11,5.63-15.53,19-15.95,37.61-.25,11,3,23.16,7.57,30.88a52.89,52.89,0,0,0,9.67.87A53.71,53.71,0,0,0,261.62,100.68Z"/><path class="cls-4" d="M269.2,50.05a44.68,44.68,0,0,0-34.13,0V26.29H269.2Z"/></g><path class="cls-4" d="M262.26,102.35a2.56,2.56,0,0,1-2.24,2.46,51.11,51.11,0,0,1-16,0,2.56,2.56,0,0,1-2.24-2.46V102a2.6,2.6,0,0,1,2.72-2.49h15a2.6,2.6,0,0,1,2.72,2.49Z"/><path class="cls-4" d="M262.26,106.67a2.56,2.56,0,0,1-2.24,2.46,51.11,51.11,0,0,1-16,0,2.56,2.56,0,0,1-2.24-2.46v-.33a2.61,2.61,0,0,1,2.72-2.49h15a2.61,2.61,0,0,1,2.72,2.49Z"/><circle class="cls-6" cx="252.13" cy="67.61" r="9.81"/><path class="cls-4" d="M252.13,74.91a7.3,7.3,0,1,1,7.31-7.3A7.31,7.31,0,0,1,252.13,74.91Z"/><path class="cls-2" d="M247.18,110.93a.2.2,0,0,0-.23.07,8.71,8.71,0,0,0-1.87,7.11.22.22,0,0,0,.43,0,6.89,6.89,0,0,1,.52-1,6.13,6.13,0,0,1,.88-1.1.22.22,0,0,1,.37.2,7.31,7.31,0,0,0,2.14,6.84,7,7,0,0,0,4.28,1.68.23.23,0,0,0,.22-.31,3.52,3.52,0,0,1-.26-1.6,4.56,4.56,0,0,1,1-2.37,7.74,7.74,0,0,0,1.19-4.27.22.22,0,0,1,.42-.1,4.13,4.13,0,0,1,.43,1.15,4.8,4.8,0,0,1,.08,1.47.22.22,0,0,0,.36.2,5.23,5.23,0,0,0,.55-8,.22.22,0,0,0-.21,0,19.57,19.57,0,0,1-3.61.64A20.18,20.18,0,0,1,247.18,110.93Z"/><polyline class="cls-7" points="73.07 130.4 73.07 269.85 270.31 269.85"/><path class="cls-8" d="M84.78,244.6l57.65-51.81a.57.57,0,0,1,.88.14l7.46,12.88a.58.58,0,0,0,.87.16L197,168.26a.56.56,0,0,1,.84.12l6.7,10a.58.58,0,0,0,.86.11L243.19,145a.58.58,0,0,0-.11-.94l-6.3-3.43a.58.58,0,0,1,.08-1l24.59-8.71a.58.58,0,0,1,.77.62l-3.1,22.87a.58.58,0,0,1-.86.42l-5.89-3.41a.58.58,0,0,0-.72.11l-43.35,48.1a.57.57,0,0,1-.88,0L196,184.67a.58.58,0,0,0-.86-.06l-42.82,41.74a.57.57,0,0,1-.86-.07L138.52,209.5a.57.57,0,0,0-.84-.07l-46.55,42.9a.57.57,0,0,1-.84-.06l-5.57-6.88A.59.59,0,0,1,84.78,244.6Z"/><circle class="cls-4" cx="65.6" cy="99.75" r="5.14"/><circle class="cls-4" cx="90.95" cy="99.75" r="5.14"/><circle class="cls-4" cx="116.3" cy="99.75" r="5.14"/><circle class="cls-9" cx="389.34" cy="153.05" r="66.35"/><path class="cls-9" d="M399.47,216.1s-4.59,18.89,0,33.78,30.35,21.19,32.64,46.39-16.61,57.83-24.63,92.19-1.72,83-1.72,83a163.81,163.81,0,0,1-54.11,4.86,166.57,166.57,0,0,1-78.43-27.19c3.49-33.71,8.41-78.45,15.15-132.29,3.9-31.16,8.25-65.62,28.92-72.72,9.16-3.15,30.35-.86,34.65-5.16s7.44-37.79,7.44-37.79S394,197.2,399.47,216.1Z"/><path class="cls-9" d="M429.77,205.65a90.79,90.79,0,0,1-33.67,15.79c-22.05,5.1-57.56,4.21-72.79-17.65a39.91,39.91,0,0,1-5-10.16c-10.13-28.26,4.77-58.27,11.78-70.49C330.1,123.14,438.4,95.06,429.77,205.65Z"/><path class="cls-10" d="M400.23,152.41a19.51,19.51,0,0,0-8.9-7.76c-2.49-1.12-5.85-2.65-7.74-1.12a3,3,0,0,0-1.1,2.8c.51,2.08,4.07,1.91,8.88,3.89,6.33,2.62,9.42,6.74,10.21,6C402.16,155.71,400.78,153.34,400.23,152.41Z"/><path class="cls-10" d="M336.88,121.86a19.59,19.59,0,0,1,11.44,2.93c2.34,1.41,5.5,3.32,5.31,5.73A3,3,0,0,1,352,133c-2,.76-3.88-2.28-8.24-5.11-5.74-3.73-10.89-3.93-10.75-5C333.07,122.14,335.81,121.94,336.88,121.86Z"/><path class="cls-11" d="M359.86,148s-9.5,7.43-9.74,9.71,7.67,5.77,7.67,5.77"/><ellipse class="cls-12" cx="384.11" cy="177.67" rx="4.73" ry="7.59" transform="translate(48.45 435.42) rotate(-62.34)"/><ellipse class="cls-12" cx="325.85" cy="153.24" rx="4.73" ry="7.59" transform="translate(38.87 370.73) rotate(-62.34)"/><path class="cls-9" d="M420.15,174.46a13,13,0,0,1,10.34-.54,10.05,10.05,0,0,1,4.93,4c3.54,6.46-3.38,20.9-13.47,21.88-5.65.54-10.18-3.32-11.68-4.72Z"/><path class="cls-13" d="M431.12,183.93l-8.39-3.19s6.89,8.24-2.66,12.86"/><path class="cls-14" d="M337.46,147.31a5.71,5.71,0,1,1,3.55-7.24A5.72,5.72,0,0,1,337.46,147.31Z"/><path class="cls-14" d="M382.36,167.17a5.71,5.71,0,1,1,3.11-7.44A5.72,5.72,0,0,1,382.36,167.17Z"/><path class="cls-13" d="M347.16,185.71a8.83,8.83,0,0,1-6.52-3.6"/><path class="cls-15" d="M362.56,177a52.53,52.53,0,0,1-24.12-11.62,19.23,19.23,0,0,0,.54,5.82c.19.79,1.91,6.3,6.73,8.89S357.47,181.54,362.56,177Z"/><path class="cls-10" d="M368,105.18c2.69,5.3,8.16,7.39,13.36,9.56,17.67,7.36,26.85-.62,36.34,6.12,6.87,4.87,10.08,14.74,9.65,22.35-.82,14.47-15.79,31.19-14.85,39.15.76,6.53,6.14-8.44,13.07-9.27s13.64,4.83,9.9,14.11-13.17,19.49-25.16,7.84c-1.38,3.42-3.41,8.18-6.17,13.72-5.29,10.61-7.65,12.6-6.83,13.8,2.72,4,37.62-4.59,56.56-32.45,3.68-5.41,15-23.72,12.22-48.59-.59-5.25-2.93-23.63-17.54-39.3-21.23-22.75-57.34-28-81.67-15a54.58,54.58,0,0,0-13.25,9.92c3.12-1.38,7.39-2.68,10.25-.75C366.5,98.16,366.08,101.48,368,105.18Z"/><path class="cls-11" d="M390.31,223.45s-18.11,2.17-33.49-2"/><path class="cls-9" d="M340.64,241.76a65.72,65.72,0,0,0-20.42,1.75A74.65,74.65,0,0,0,308,247.83c-17.33,8.14-33.24,33.75-35.76,37.72-8.19,12.93-22.2,29.94-47.53,46.36l23.77,34.77a133.58,133.58,0,0,0,70.25-52.45C338.43,284.85,340.53,254.93,340.64,241.76Z"/><path class="cls-9" d="M186.64,277.1c28.61,22.46,77.68,64.1,68.36,83.49-3.11,6.47-11.52,8-13,8.25-23,4.16-52.81-29.91-76.61-82.31Z"/><path class="cls-9" d="M406.87,260.54s37.3,26.58,45.55,51.92S466.49,471,466.49,471s-21.07,11.22-40.9,5.86L396.44,330.14S384.89,280.52,406.87,260.54Z"/><path class="cls-9" d="M195.66,284.3s-20.25-21.37-30.24-23.8-29.67.86-43.42-1.61-2.43,12.4,11.59,16.17,29.41,7.17,35.19,18.67C168.78,293.73,193.57,297.58,195.66,284.3Z"/><path class="cls-16" d="M466.49,405.83S447,426.32,411.74,424.16L408,397.38q-.32,13.58-.18,27.86c.16,16.36.8,32.07,1.79,47.09a136.12,136.12,0,0,1-51.76,9.35c-48.6-.89-81.95-28.24-92.39-37.57l15.91-90.32s-13.81,6.82-21.61,8.77c0,0-1.77-26.12-18.89-42.3,0,0,25.67-30.91,41.85-54.63s51.13-25.59,66.14-25.06c0,0,3.81,29,24.73,31.17a36.78,36.78,0,0,0,32.07-12.42s34.51,21.49,47.09,44.82S466.49,405.83,466.49,405.83Z"/><path class="cls-17" d="M432.3,133.15s2.64,9.91-2,18.71"/><path class="cls-17" d="M436.36,155.77s-4.85,13.92,4,21.9"/><path class="cls-17" d="M378,86.68s-7.73,1-11.5,6.93"/><path class="cls-17" d="M392.08,89.48S376.69,87.14,369,96"/><path class="cls-11" d="M419.29,336.45S409.82,366.3,408,397.38"/><path class="cls-11" d="M298.88,272.24s-10,38.49-17.54,81.55"/><path class="cls-11" d="M247.91,357.3s3.46-20.53-10.28-34.5"/><path class="cls-17" d="M394.17,114.36s14.07-.6,23.49-7.75"/><path class="cls-17" d="M408.52,116.43s11.84-2.07,16.53-4.61"/></g></svg>