<?xml version="1.0" ?><svg viewBox="0 0 512 512" xmlns="http://www.w3.org/2000/svg"><defs><style>.cls-1{fill:#ffb833;}.cls-16,.cls-2,.cls-4,.cls-7,.cls-9{fill:none;stroke-linecap:round;stroke-linejoin:round;}.cls-2{stroke:#ff535c;}.cls-3{fill:#ffc871;}.cls-4,.cls-7,.cls-9{stroke:#383333;}.cls-4{stroke-width:0.75px;}.cls-5{fill:#ffdb99;}.cls-6{fill:#fff3e3;}.cls-10,.cls-8{fill:#383333;}.cls-10,.cls-13,.cls-9{fill-rule:evenodd;}.cls-11{fill:#ff535c;}.cls-12{fill:#ff832f;}.cls-13{fill:#fff;}.cls-14{fill:#00ccc1;}.cls-15{fill:#aaeeea;}.cls-16{stroke:#fff;}</style></defs><title/><g data-name="Product Scanning" id="Product_Scanning"><path class="cls-1" d="M235.09,197a21.47,21.47,0,0,1,5.3,3.53,22.1,22.1,0,0,1,6.42,11.08,15.89,15.89,0,0,1,11.87-15.09,15.13,15.13,0,0,1-7.22-3,15.72,15.72,0,0,1-5.62-9.63,13.85,13.85,0,0,1-2.4,7.55A14.15,14.15,0,0,1,235.09,197Z"/><path class="cls-1" d="M424.53,136.08a21.19,21.19,0,0,1,5.3,3.53,22.1,22.1,0,0,1,6.42,11.08,15.89,15.89,0,0,1,11.87-15.09,15.23,15.23,0,0,1-7.22-3,15.72,15.72,0,0,1-5.62-9.63,13.8,13.8,0,0,1-2.4,7.54A14.13,14.13,0,0,1,424.53,136.08Z"/><path class="cls-1" d="M183.89,76.94a27.47,27.47,0,0,1,6.92,4.62A28.83,28.83,0,0,1,199.21,96a21.27,21.27,0,0,1,5.25-13.43,21,21,0,0,1,10.28-6.3,19.75,19.75,0,0,1-9.44-4A20.49,20.49,0,0,1,198,59.73a18.19,18.19,0,0,1-3.15,9.86A18.52,18.52,0,0,1,183.89,76.94Z"/><path class="cls-2" d="M209.08,165.46s-34.48-2.55-31.42,13.25,30.16,4.08,22.47,0-29,3.06-22.66,16.56,27.71,11.21,18,3.95-34.65,11.59-16.3,20.77"/><path class="cls-2" d="M463.09,223.17s34.48-2.55,31.42,13.25-30.15,4.08-22.47,0,29,3.06,22.67,16.56-27.72,11.21-18,4,34.65,11.6,16.31,20.77"/><path class="cls-3" d="M267.28,135.54a13.94,13.94,0,0,0-10.35-4c-.83.06-4.13.31-6.35,2.39-5.77,5.4-3.56,22.44,6.4,26.81,5.57,2.45,11.49,0,13.49-.89Q268.88,147.68,267.28,135.54Z"/><path class="cls-4" d="M252.94,141.51l9.61-.44s-9.78,6.09-1.59,14"/><path class="cls-3" d="M386.3,135.54a14,14,0,0,1,10.35-4c.83.06,4.13.31,6.36,2.39,5.77,5.4,3.56,22.44-6.41,26.81-5.57,2.45-11.49,0-13.48-.89Z"/><path class="cls-4" d="M400.65,141.51l-9.62-.44s9.78,6.09,1.59,14"/><circle class="cls-5" cx="327.19" cy="124.57" r="68.07"/><path class="cls-5" d="M344.85,175.13s-.6,27,7.2,37.78,39.58,12.59,46.77,34.78-26.78,119,0,202.11a218,218,0,0,1-52.77,12.89c-46.94,5.37-85.1-5.92-106.55-14.27A358.35,358.35,0,0,0,250.89,405c8-40.84,8.07-74.25,6.8-84.88-6.4-53.42-15.19-79-4-89.4s49.58-8.8,52-20.79,1.6-34.78,1.6-34.78S325.66,164.33,344.85,175.13Z"/><path class="cls-5" d="M288.15,219.67c-20.22,1.05-32.49,7.68-39.51,12.81-15.28,11.18-19.26,25.18-37.71,66.25-8.42,18.75-15.61,33.69-20.07,42.81L225.2,364a234.29,234.29,0,0,0,49.24-79.5A232.57,232.57,0,0,0,288.15,219.67Z"/><path class="cls-5" d="M361.29,219.67c24.65.77,38,8.73,45.65,15.87,15.12,14.12,14.3,31,28.54,63.87a259.29,259.29,0,0,0,23.1,42.13l-28.82,29.59A87.43,87.43,0,0,1,418.55,364c-8.5-6.35-26.61-22.3-43.55-79.53A421.06,421.06,0,0,1,361.29,219.67Z"/><path class="cls-6" d="M291,219.05a55.15,55.15,0,0,0,29.61,14.78,50.61,50.61,0,0,0,21.15-1.27,48.27,48.27,0,0,0,21.16-12.89s35.49-1.88,52.05,21.56,20.49,58.18,20.49,58.18-3.39,21.47-37.21,41.23c-.82,11.59-1.27,23.86-1.2,36.74a486,486,0,0,0,6.45,76.45s-104.64,31.59-167.84-5.78c0,0,19.54-55.21,20-118.4a154.8,154.8,0,0,1-49.34-21.84c1.18-2.69,3.18-7.28,5.61-13,13.66-32.17,15.39-40,24.11-51.13,3.91-5,8.41-10.86,16.44-15.9C263.68,220.81,276.79,218.38,291,219.05Z"/><path class="cls-5" d="M399.85,255.09a197.17,197.17,0,0,1,14.3,49.58c5.19,34.63-1.31,55.43,11.48,64.84,8.61,6.34,23.78,5.91,31.68-.78,23.18-19.63-12-96.82-26.34-126.24Z"/><path class="cls-5" d="M259.12,124.57c.35,8.62,2.76,43.11,29.74,66,6.56,5.56,21.17,17.93,41.28,16.82,17.67-1,29.55-11.8,36.18-17.84,24.83-22.62,28.27-54.31,28.95-64.93C395.27,124.57,319.58,57.1,259.12,124.57Z"/><path class="cls-7" d="M306.68,202.55s17.9,10.67,41,0"/><path class="cls-8" d="M282.52,129.26a21,21,0,0,1,12-3.93c2.93-.07,6.89-.17,8.11,2.12a3.19,3.19,0,0,1-.08,3.24c-1.37,1.84-4.82.18-10.4.13-7.35-.07-12.12,2.71-12.61,1.66C279.23,131.72,281.59,130,282.52,129.26Z"/><path class="cls-8" d="M367.16,129a21,21,0,0,0-12.11-3.7c-2.93,0-6.9,0-8.08,2.29a3.2,3.2,0,0,0,.15,3.23c1.41,1.81,4.83.08,10.4-.08,7.35-.21,12.18,2.48,12.64,1.42C370.49,131.36,368.1,129.65,367.16,129Z"/><path class="cls-9" d="M324.48,144.8s-5.14,11.88-4.19,14.15,10.2,1.5,10.2,1.5"/><path class="cls-4" d="M330.41,183s-4.65,1.74-8.42-.07"/><ellipse class="cls-3" cx="285.47" cy="164.81" rx="5.07" ry="8.14" transform="translate(115.8 447.41) rotate(-89.02)"/><ellipse class="cls-3" cx="361.75" cy="166.11" rx="5.07" ry="8.14" transform="translate(189.46 524.96) rotate(-89.02)"/><path class="cls-10" d="M300.89,152.75a6,6,0,1,1,.53-8.53A6.07,6.07,0,0,1,300.89,152.75Z"/><path class="cls-10" d="M286.85,144.17c.14-.11,1.32,2,2.84,1.8,1.13-.11,1.41-1.35,2.84-2.43a7.27,7.27,0,0,1,4.27-1.36,15.54,15.54,0,0,1-2.44,3.52c-1.38,1.5-2.27,2.47-3.48,2.49C288.43,148.22,286.67,144.32,286.85,144.17Z"/><path class="cls-10" d="M358.25,152.22a6.05,6.05,0,1,1-.53-8.53A6.07,6.07,0,0,1,358.25,152.22Z"/><path class="cls-10" d="M363.74,144.17c-.13-.11-1.31,2-2.84,1.8-1.12-.11-1.41-1.35-2.84-2.43a7.27,7.27,0,0,0-4.27-1.36,15.87,15.87,0,0,0,2.44,3.52c1.38,1.5,2.27,2.47,3.48,2.49C362.16,148.22,363.92,144.32,363.74,144.17Z"/><path class="cls-11" d="M284.53,219s-1.35,62,3.62,65.31,69.94,3.57,76.06,0,6.71-64.39,6.71-64.39a54.83,54.83,0,0,1,12.89,2s-1.26,58,13.69,105.52L408.21,459.6s-95.48,35.67-176.51-12.24l27.42-136.07s10.32-45.83,13.08-91.05A47.75,47.75,0,0,1,284.53,219Z"/><path class="cls-1" d="M365.59,412.37a171,171,0,0,1-80.23,0,11.78,11.78,0,0,1-8.15-3.38,11.47,11.47,0,0,1-3.38-8.15V342.4a11.53,11.53,0,0,1,11.53-11.53,240.54,240.54,0,0,0,80.23,0,11.79,11.79,0,0,1,8.15,3.38,11.49,11.49,0,0,1,3.38,8.15v58.44A11.53,11.53,0,0,1,365.59,412.37Z"/><path class="cls-5" d="M191,340.46c7.74-18.79,27.36-32.25,50.21-45.95,12.37-7.41,29-16.84,49.15-26.95q-2,11.25-4.07,22.49A222.41,222.41,0,0,1,253,337.89c-14.95,16.38-30.76,33.71-47.24,30.68-.52-.09-12.28-2.42-16.12-11.48C188.06,353.31,187.77,348.2,191,340.46Z"/><path class="cls-1" d="M412.15,175l-15.27-3.67a2.26,2.26,0,0,1-1.69-2.64l.1-.48a2.26,2.26,0,0,1,2.57-1.8l15.51,2.45a2.26,2.26,0,0,1,1.87,2.67l-.34,1.71A2.26,2.26,0,0,1,412.15,175Z"/><rect class="cls-1" height="26.84" rx="1.21" transform="translate(43.59 -77.38) rotate(11.24)" width="12.91" x="408.61" y="169.44"/><rect class="cls-12" height="16.66" rx="4.25" transform="translate(46.2 -76.45) rotate(11.24)" width="28.03" x="397.63" y="188.24"/><path class="cls-1" d="M419.39,299.68l-54.31-10.79c-7.8-1.55-12.82-8.28-10.87-14.54l22-70.55c1.72-5.53,8.33-8.73,15.21-7.36l39,7.74c6.89,1.37,11.77,6.85,11.25,12.63L435,290.4C434.4,296.93,427.18,301.23,419.39,299.68Z"/><path class="cls-12" d="M416.42,285.92l-42-8.34a7.59,7.59,0,0,1-6-9.7L382.14,222c.92-3,4.67-4.85,8.4-4.11l33.79,6.71c3.74.75,6.51,3.85,6.19,7l-4.85,47.64A7.58,7.58,0,0,1,416.42,285.92Z"/><path class="cls-5" d="M447.43,229.37s-23-3.45-23.86,1.32,13.11,7,13.11,7-15-1.65-15.43,2S434.19,246,434.19,246s-9.46-2.1-10.87.82,10.15,6,10.15,6-11-.15-9.82,2.85,16.71,7.14,19,4.92-.83-6-.83-6,7.15-1.19,2.11-6.13c0,0,7.77-5.61,1.3-8.58C445.23,239.89,457.54,234,447.43,229.37Z"/><path class="cls-4" d="M435.59,237.48a51.33,51.33,0,0,1,9.64,2.41"/><path class="cls-4" d="M432.26,245.6s7.72.71,11.67,2.87"/><path class="cls-4" d="M433.47,252.79a26.65,26.65,0,0,1,8.35,1.81"/><path class="cls-7" d="M413.91,329.79s-1.9,22.82,4.91,31.27"/><path class="cls-7" d="M198.64,327.55s7.38-9,15.38-14.93"/><path class="cls-13" d="M312.25,169.88h27.9a14.69,14.69,0,0,1-27.9,0Z"/><path class="cls-8" d="M332.61,71.26S317.06,75,309,95.54s-20.26,29.68-40.3,29c0,0-.34,14.22-3.78,18.42s-7.14-11.45-11-11a10.53,10.53,0,0,0-4.87,3.73s-8.23-107,81.28-82.86c0,0,40.9-12.91,60.62,13.59s10.91,66.59,10.91,66.59-5.13-.79-6.67,2.57-1.44,9-4.69,9.52a4.36,4.36,0,0,1-2.42-.14c-4.93-2-.92-14.39-5-23.07-5.42-11.41-20.73-7.42-34.2-18.09C342.61,98.88,335.46,89.69,332.61,71.26Z"/><circle class="cls-8" cx="377.1" cy="58.23" r="27.23"/><path class="cls-14" d="M305.81,301l-12.69-2.77a5.37,5.37,0,0,1-4.1-6.39l10.13-46.42a5.37,5.37,0,0,1,6.39-4.1L318.23,244a5.37,5.37,0,0,1,4.1,6.39,69.42,69.42,0,0,0-10.13,46.41,5.36,5.36,0,0,1-6.39,4.11Z"/><rect class="cls-14" height="25.29" rx="5.27" transform="translate(60.84 -63.43) rotate(12.31)" width="51.7" x="298.67" y="237.72"/><path class="cls-5" d="M270.05,278a65,65,0,0,1,15.29-11.85,37.32,37.32,0,0,1,11.6-4.71c8.27-1.65,18.59-.24,20,4,.37,1.08.55,3.41-.81,4.66a3.84,3.84,0,0,1-2.16.94s2.63,3.49-.77,5.87c0,0,2.13,3.31-.76,5.61a3.26,3.26,0,0,1,1.16,2.28,3.52,3.52,0,0,1-1.33,2.51c-3.38,3.17-11.4-.9-17,2.68-1.9,1.22-1.75,2.19-2.79,4.05a15.11,15.11,0,0,1-2.73,3.51,19.86,19.86,0,0,1-10,6.2,17.37,17.37,0,0,1-7.14.08A20.28,20.28,0,0,0,270.05,278Z"/><path class="cls-4" d="M300.08,283.18a31.22,31.22,0,0,1,12.4-.59"/><path class="cls-4" d="M301.27,276.39s7.56-1.36,12,.59"/><path class="cls-4" d="M301.27,269.42s8.41-2.57,12.74,1.69"/><rect class="cls-14" height="109.44" rx="10.12" transform="translate(214.36 624.95) rotate(-180)" width="155.8" x="29.28" y="257.75"/><rect class="cls-15" height="67.95" rx="7.44" transform="translate(203.82 724.46) rotate(-180)" width="34.08" x="84.87" y="328.25"/><rect class="cls-14" height="51.64" rx="10.33" transform="translate(225.05 805.06) rotate(-180)" width="166.5" x="29.28" y="376.71"/><rect class="cls-14" height="50.45" rx="5.42" width="439.04" x="27.85" y="430.55"/><rect class="cls-15" height="31.94" rx="9.67" width="468.86" x="12.46" y="413.39"/><path class="cls-16" d="M343.46,71.26s-1.9,24.72,18.29,29.81,21.09,26.25,35.29,17.84"/><path class="cls-16" d="M370.23,87.06s12.36,30.07,29.62,17.58"/><path class="cls-16" d="M327.19,66.67S308,69,300.65,83.24s-20.83,40.26-42.9,29.3"/><path class="cls-16" d="M257.75,103.62s21.42,5.86,34.07-25.73"/><path class="cls-16" d="M361.3,49.37s7.42-16.43,23.74-10"/><path class="cls-16" d="M388.56,47.56s8.67,5.86,0,19.11"/></g></svg>