<?xml version="1.0" ?><svg viewBox="0 0 512 512" xmlns="http://www.w3.org/2000/svg"><defs><style>.cls-1{fill:#aaeeea;}.cls-2{fill:#00ccc1;}.cls-3{fill:#ffb833;}.cls-4{fill:#ffb08d;}.cls-5,.cls-7{fill:#383333;}.cls-6{fill:#ff8c5f;}.cls-10,.cls-7{fill-rule:evenodd;}.cls-8{fill:#d7f9f6;}.cls-9{fill:#fff3e3;}.cls-10,.cls-11{fill:#fff;}</style></defs><title/><g data-name="Online Mental Health Checkup" id="Online_Mental_Health_Checkup"><rect class="cls-1" height="265.73" rx="20.87" width="352.53" x="19.22" y="150.18"/><circle class="cls-2" cx="43.29" cy="168.27" r="5.8"/><circle class="cls-2" cx="67.83" cy="168.27" r="5.8"/><circle class="cls-2" cx="92.37" cy="168.27" r="5.8"/><rect class="cls-3" height="24.12" rx="1.73" transform="translate(246 344.1) rotate(-90)" width="4.5" x="292.8" y="36.99"/><rect class="cls-3" height="24.12" rx="1.73" transform="translate(590.1 98.1) rotate(-180)" width="4.5" x="292.8" y="36.99"/><rect class="cls-3" height="30.66" rx="1.73" transform="translate(111.12 341.46) rotate(-90)" width="5.72" x="223.43" y="99.84"/><rect class="cls-3" height="30.66" rx="1.73" transform="translate(452.58 230.34) rotate(-180)" width="5.72" x="223.43" y="99.84"/><rect class="cls-3" height="30.66" rx="1.73" transform="translate(292.05 662.86) rotate(-90)" width="5.72" x="474.59" y="170.07"/><rect class="cls-3" height="30.66" rx="1.73" transform="translate(954.91 370.81) rotate(-180)" width="5.72" x="474.59" y="170.07"/><circle class="cls-4" cx="382.89" cy="283.04" r="84.83"/><path class="cls-4" d="M467.2,296.33c-1.88,8.86-10.66,45.31-44.9,67.76-7.89,5.17-31.24,20.49-62.19,15.78-2.36-.36-27.51-4.51-44.86-22.59C289,329.9,287.72,278,315.05,230.54c15.17-1.95,55.16-5,97.14,17.41A161.06,161.06,0,0,1,467.2,296.33Z"/><path class="cls-5" d="M337,286.52a25.83,25.83,0,0,0-13.2-8.33c-3.47-1-8.18-2.28-10.33.1a3.94,3.94,0,0,0-.88,3.88c1.09,2.62,5.71,1.67,12.39,3.29,8.79,2.13,13.66,6.89,14.55,5.78C340.14,290.44,337.85,287.63,337,286.52Z"/><ellipse class="cls-6" cx="333.35" cy="319.47" rx="6.25" ry="10.03" transform="translate(-20.16 616.49) rotate(-83.82)"/><path class="cls-4" d="M386.26,301.73c.89-.88,5.77-5.46,12.75-5,1,.07,5.08.37,7.82,2.94,7.11,6.64,4.39,27.63-7.89,33-6.85,3-14.14,0-16.6-1.11Q384.3,316.69,386.26,301.73Z"/><path class="cls-5" d="M394.05,326.15a.39.39,0,0,1-.27-.11.37.37,0,0,1,0-.53c2.86-2.77,4.16-5.6,3.87-8.43-.52-4.9-5.72-8.19-5.78-8.23a.36.36,0,0,1-.15-.43.38.38,0,0,1,.37-.26l11.84.55a.37.37,0,0,1,.36.39.39.39,0,0,1-.39.36L393.33,309c1.64,1.29,4.66,4.14,5.07,8,.33,3.07-1,6.11-4.09,9.05A.39.39,0,0,1,394.05,326.15Z"/><path class="cls-4" d="M298.94,289.59a13.3,13.3,0,0,1-8.05,9.19c-7,2.92-10.68,15.61,10.67,18.68l3.09-14.3Z"/><path class="cls-5" d="M312.85,343.62a7.39,7.39,0,0,1-3.2-.67.38.38,0,0,1-.17-.5.37.37,0,0,1,.5-.18c3.5,1.68,8.28-.74,8.33-.77a.37.37,0,0,1,.5.17.37.37,0,0,1-.16.5A14.18,14.18,0,0,1,312.85,343.62Z"/><path class="cls-7" d="M319,306.82a7.21,7.21,0,1,1,3.41-9.6A7.24,7.24,0,0,1,319,306.82Z"/><rect class="cls-1" height="97.01" rx="19.6" transform="translate(795.99 163.48) rotate(-180)" width="137.34" x="329.32" y="33.24"/><path class="cls-1" d="M454.44,123.2s-2.51,27.28-22.39,27c-1.49,0-2.29-2.84-1.36-4.78,2.08-4.33,4.44-12.51,4.05-27Z"/><path class="cls-4" d="M359.89,364.31s-1.6,34-16.89,42.7-56.78.62-62.95,56.93c0,0,108.92,30.32,197.4,0,0,0-4.95-39.6-14.85-46.41s-46.26-7.43-51.9-17.33-6.77-43.31-6.77-43.31Z"/><ellipse class="cls-8" cx="192.61" cy="268.29" rx="83.02" ry="100"/><path class="cls-8" d="M185.09,331l-11.6,59.54s46.42,13.12,93.85,0l-4-108.24Z"/><path class="cls-8" d="M110.11,279.49s3.54,76.73,26.25,88.8,75.69-6.84,75.69-6.84l-12.87-88.57Z"/><path class="cls-8" d="M112.14,268.29s.5,11.65-6.31,13.67S98,301.14,120,299.12Z"/><path class="cls-2" d="M147.88,196.29c-11.41,11-22.93,31.85-15.91,46.4,6.5,13.47,22.83,9,52.6,22.45,39.18,17.74,46.57,41.68,60.81,37.19,15.85-5,22.45-39.65,15.58-65.84-6-22.86-24.08-46.16-51.6-53.43C205.92,182.15,171.44,173.63,147.88,196.29Z"/><path class="cls-1" d="M160.77,220.08a24.79,24.79,0,1,0,24.79-24.79A24.79,24.79,0,0,0,160.77,220.08Zm10.48,0a14.31,14.31,0,1,1,14.31,14.3A14.31,14.31,0,0,1,171.25,220.08Z"/><rect class="cls-1" height="14.43" rx="2.31" transform="translate(371.11 388.39) rotate(-180)" width="12.21" x="179.45" y="186.98"/><rect class="cls-1" height="14.43" rx="2.31" transform="translate(371.11 489.72) rotate(-180)" width="12.21" x="179.45" y="237.65"/><rect class="cls-1" height="14.43" rx="2.31" transform="translate(379.75 59.31) rotate(90)" width="12.21" x="154.12" y="212.32"/><rect class="cls-1" height="14.43" rx="2.31" transform="translate(430.42 8.64) rotate(90)" width="12.21" x="204.79" y="212.32"/><rect class="cls-1" height="14.43" rx="2.31" transform="translate(217 -49) rotate(45)" width="12.21" x="161.54" y="230.23"/><rect class="cls-1" height="14.43" rx="2.31" transform="translate(202.16 -84.82) rotate(45)" width="12.21" x="197.37" y="194.4"/><rect class="cls-1" height="14.43" rx="2.31" transform="translate(428.75 225.64) rotate(135)" width="12.21" x="161.54" y="194.4"/><rect class="cls-1" height="14.43" rx="2.31" transform="translate(515.24 261.46) rotate(135)" width="12.21" x="197.37" y="230.23"/><path class="cls-8" d="M218.09,252.07a16.26,16.26,0,1,0,16.25-16.25A16.26,16.26,0,0,0,218.09,252.07Zm6.87,0a9.38,9.38,0,1,1,9.38,9.38A9.38,9.38,0,0,1,225,252.07Z"/><rect class="cls-8" height="9.46" rx="2.31" transform="translate(468.68 470.2) rotate(-180)" width="8" x="230.34" y="230.37"/><rect class="cls-8" height="9.46" rx="2.31" transform="translate(468.68 536.66) rotate(-180)" width="8" x="230.34" y="263.6"/><rect class="cls-8" height="9.46" rx="2.31" transform="translate(469.44 33.99) rotate(90)" width="8" x="213.73" y="246.98"/><rect class="cls-8" height="9.46" rx="2.31" transform="translate(502.67 0.76) rotate(90)" width="8" x="246.95" y="246.98"/><rect class="cls-8" height="9.46" rx="2.31" transform="translate(251.49 -80.23) rotate(45)" width="8" x="218.59" y="258.73"/><rect class="cls-8" height="9.46" rx="2.31" transform="translate(241.76 -103.73) rotate(45)" width="8" x="242.09" y="235.24"/><rect class="cls-8" height="9.46" rx="2.31" transform="translate(549.68 252.25) rotate(135)" width="8" x="218.59" y="235.24"/><rect class="cls-8" height="9.46" rx="2.31" transform="translate(606.4 275.75) rotate(135)" width="8" x="242.09" y="258.73"/><path class="cls-4" d="M208,279.73s-3.27-19.45,1.56-24.17,2.92,13.78,11,22.28,14.69,6.28,17.24,2.88,2.26-9.16,8.21-11.45.71,6.92,0,12,3.6,18.46-.73,28.84,18.14,142.35,18.14,142.35-32.55,20.92-69.61-4.18c0,0,10.43-104.85,11-116.17s-13-21.33-15.3-28.08,4.3-7.75,4.3-7.75-.62-7.22,6-7.22C199.91,289.07,199.13,278.59,208,279.73Z"/><path class="cls-4" d="M209.64,284.87s-3.68-6.51-4.15-17.74.19-20.45,4.15-22,4.25,16.55,6.7,22,9.54,14.72,14.07,14.91,7.08-4.34,8.12-7.46,6.89-7.93,9.53-7.45-.33,8.21-1.77,13-1.53,12.94-1.53,12.94-6.23,1.17-6.8,1.26S209.64,284.87,209.64,284.87Z"/><path class="cls-9" d="M349.05,396.37s-7.44,6.54-13.51,10.7-39.05,4.59-50.1,14.29-22,41.92-22,41.92S294.83,481,359.27,483s113-11.86,131.65-22.39c0,0-15.93-42.4-27-49s-40.88-6.93-45.73-10.05A23.56,23.56,0,0,1,410.7,393S386,400.47,349.05,396.37Z"/><path class="cls-9" d="M203.47,329.21l45.65-3.43,16.27,126.89s-37.56,26.55-76.29-2.55Z"/><path class="cls-5" d="M308.66,241.81s3.15-33.54,38.14-46.52,88-.82,110.87,30.34,14.55,93.35,0,113.71S411.93,376,401.19,375.63,375.12,356.76,385,332.71c0,0,9.51,4.69,16.83-1.66s10.2-15,8.86-21.25-5.18-15.21-16.44-13.06-10,13.74-13.14,16.43-9-13.67,0-26.92,10.34-16.37,11-27.29-53.92,17.27-48.73-33.33C343.35,225.63,325.26,223.7,308.66,241.81Z"/><rect class="cls-2" height="18.13" rx="5.6" width="57.75" x="372.54" y="68.86"/><rect class="cls-2" height="57.75" rx="5.6" width="18.13" x="392.35" y="49.05"/><path class="cls-10" d="M302.85,330s11,2.34,20.51-1.56c0,0-1.54,10.4-8.17,11.83S303.37,334.77,302.85,330Z"/><path class="cls-5" d="M368.59,381.08A52.71,52.71,0,0,1,357.72,380a.5.5,0,0,1-.37-.6.5.5,0,0,1,.6-.38c.15,0,14.68,3.32,24.71-1.73a.5.5,0,1,1,.45.89C378.55,380.43,373.2,381.08,368.59,381.08Z"/><path class="cls-5" d="M311.72,478.88h-.06a.5.5,0,0,1-.44-.55L314,453.85a.5.5,0,0,1,.55-.44.5.5,0,0,1,.45.55l-2.77,24.48A.51.51,0,0,1,311.72,478.88Z"/><path class="cls-5" d="M467.72,470.61a.51.51,0,0,1-.49-.38L461,445.45a.51.51,0,0,1,.37-.61.49.49,0,0,1,.6.37L468.2,470a.49.49,0,0,1-.36.6Z"/><path class="cls-5" d="M198.65,303.25a.38.38,0,0,1-.22-.07c-3.17-2.3-4.84-6.57-4.91-6.75a.38.38,0,0,1,.22-.49.37.37,0,0,1,.48.22s1.66,4.24,4.65,6.42a.37.37,0,0,1,.09.52A.39.39,0,0,1,198.65,303.25Z"/><path class="cls-5" d="M204.11,295.91a.38.38,0,0,1-.24-.09c-1.47-1.2-4.18-6.36-4.29-6.57a.37.37,0,0,1,.16-.51.36.36,0,0,1,.5.16c0,.05,2.75,5.24,4.11,6.34a.38.38,0,0,1,.05.53A.37.37,0,0,1,204.11,295.91Z"/><path class="cls-5" d="M212.05,287.85a.37.37,0,0,1-.21-.06c-3.21-2.14-4.16-7.76-4.19-8a.36.36,0,0,1,.3-.43.38.38,0,0,1,.44.31c0,.05.93,5.53,3.87,7.5a.38.38,0,0,1,.1.52A.38.38,0,0,1,212.05,287.85Z"/><path class="cls-11" d="M320.43,226.13a.47.47,0,0,1-.28-.09.51.51,0,0,1-.13-.7c.13-.18,13.18-18.41,36.36-20.07a.5.5,0,1,1,.07,1c-22.69,1.62-35.48,19.47-35.61,19.65A.48.48,0,0,1,320.43,226.13Z"/><path class="cls-11" d="M406.31,255.3a.5.5,0,0,1-.5-.42c-1.33-8.12-7.95-8.2-18-8.32a92.7,92.7,0,0,1-16.18-1.21c-17.8-3.29-17.48-25.61-17.48-25.83a.5.5,0,1,1,1,0c0,.22-.29,21.69,16.66,24.83a92.38,92.38,0,0,0,16,1.19c9.77.12,17.49.21,18.95,9.16a.51.51,0,0,1-.41.58Z"/><path class="cls-11" d="M425.36,255.3a.45.45,0,0,1-.16,0,.5.5,0,0,1-.31-.63c0-.06,2.1-6.19-1.33-11.59-2.87-4.52-8.69-7.27-17.31-8.17-25.36-2.66-27.9-14.22-28-14.71a.5.5,0,0,1,1-.19c0,.11,2.57,11.33,27.12,13.9,8.94.94,15,3.85,18.06,8.65,3.67,5.81,1.51,12.17,1.41,12.44A.5.5,0,0,1,425.36,255.3Z"/><path class="cls-11" d="M402.4,290.09h0a.5.5,0,0,1-.48-.52c.19-7.79,11.18-21,11.64-21.6a.51.51,0,0,1,.71-.06.49.49,0,0,1,.06.7c-.11.14-11.23,13.54-11.41,21A.51.51,0,0,1,402.4,290.09Z"/><path class="cls-11" d="M459.31,277.45h0a.52.52,0,0,1-.46-.55c4.08-43-38.06-60.56-38.49-60.73a.51.51,0,0,1-.27-.66.5.5,0,0,1,.65-.27c.43.17,43.26,18,39.11,61.75A.5.5,0,0,1,459.31,277.45Z"/><path class="cls-11" d="M393.83,346a.5.5,0,0,1-.11-1c27.32-6.21,38.79-26.67,43.6-42.75a103.16,103.16,0,0,0,3.94-33.86.5.5,0,0,1,.46-.54.5.5,0,0,1,.54.46,104.3,104.3,0,0,1-4,34.2c-4.88,16.34-16.54,37.15-44.34,43.46Z"/><path class="cls-11" d="M404.57,361.9a.49.49,0,0,1-.48-.37.5.5,0,0,1,.35-.61,82.9,82.9,0,0,0,35.13-19.63c21.73-20.63,25.3-47.34,25.83-57.86a.49.49,0,0,1,.52-.48.5.5,0,0,1,.47.53c-.53,10.64-4.14,37.65-26.13,58.54a84,84,0,0,1-35.55,19.86A.34.34,0,0,1,404.57,361.9Z"/></g></svg>