<?xml version="1.0" ?><svg data-name="Layer 1" id="Layer_1" viewBox="0 0 24 24" xmlns="http://www.w3.org/2000/svg"><defs><style>.cls-1{fill:none;stroke:#000;stroke-linecap:round;stroke-linejoin:round;}</style></defs><title/><path class="cls-1" d="M11.008,14.868,3.019,10.3a1,1,0,0,1,0-1.736L11.008,4a2,2,0,0,1,1.984,0l7.989,4.565a1,1,0,0,1,0,1.736l-7.989,4.565A2,2,0,0,1,11.008,14.868Z"/><path class="cls-1" d="M17.347,14.4l.14,1.535c.453,6.174-11.427,6.174-10.974,0l.14-1.535"/><line class="cls-1" x1="20.5" x2="20.5" y1="10.578" y2="16.185"/><ellipse class="cls-1" cx="20.5" cy="18.185" rx="1" ry="2"/><path class="cls-1" d="M10.569,9.239c0-.336.641-.608,1.431-.608s1.431.272,1.431.608"/></svg>