<?xml version="1.0" ?><svg data-name="Layer 1" id="Layer_1" viewBox="0 0 24 24" xmlns="http://www.w3.org/2000/svg"><defs><style>.cls-1{fill:none;stroke:#000;stroke-linecap:round;stroke-miterlimit:10;}</style></defs><title/><path class="cls-1" d="M6,11.5H4.5a1,1,0,0,1-1-1v-1a1,1,0,0,1,1-1"/><path class="cls-1" d="M8.239,20.5H5.5a1,1,0,0,1-1-1v-1a1,1,0,0,1,1-1"/><path class="cls-1" d="M5.5,14.5a1,1,0,0,1-1-1v-1a1,1,0,0,1,1-1"/><path class="cls-1" d="M12.239,5.5H5.5a1,1,0,0,1-1-1v-1a1,1,0,0,1,1-1h11a1,1,0,0,1,1,1v1a1,1,0,0,1-1,1H14.569"/><path d="M14.386,7.633a6.614,6.614,0,1,1-6.613,6.614,6.621,6.621,0,0,1,6.613-6.614m0-1A7.614,7.614,0,1,0,22,14.247a7.622,7.622,0,0,0-7.614-7.614Z"/><path class="cls-1" d="M16.187,12.205a10.592,10.592,0,0,0-1.687-.166c-1.685,0-2.283.584-2.283,1.084,0,.768,1.164.954,2.19,1.12,1.543.249,2.23.475,2.23,1.155,0,.538-.614.928-1.643,1.043a8.378,8.378,0,0,1-2.857-.262"/><line class="cls-1" x1="14.398" x2="14.398" y1="11.997" y2="11.247"/><line class="cls-1" x1="14.398" x2="14.398" y1="17.247" y2="16.497"/><path class="cls-1" d="M7.75,8.5H4.5a1,1,0,0,1-1-1v-1a1,1,0,0,1,1-1h1"/><path class="cls-1" d="M6.239,17.5H3.5a1,1,0,0,1-1-1v-1a1,1,0,0,1,1-1h2"/></svg>