<?xml version="1.0" ?><svg data-name="Layer 1" id="Layer_1" viewBox="0 0 24 24" xmlns="http://www.w3.org/2000/svg"><defs><style>.cls-1,.cls-2{fill:none;stroke:#000;stroke-linecap:round;}.cls-1{stroke-miterlimit:10;}.cls-2{stroke-linejoin:round;}</style></defs><title/><line class="cls-1" x1="9.511" x2="9.511" y1="12.366" y2="13.366"/><line class="cls-1" x1="14.511" x2="14.511" y1="12.366" y2="13.366"/><line class="cls-1" x1="9.511" x2="9.511" y1="12.366" y2="13.366"/><line class="cls-1" x1="14.511" x2="14.511" y1="12.366" y2="13.366"/><path class="cls-2" d="M18.834,12.717c-.061-7.305-1.8-10.57-6.823-10.57S5.246,5.413,5.189,12.722"/><path class="cls-2" d="M18.407,15.212c.777.562,1.753-.106,1.753-1.155a1.229,1.229,0,0,0-1.327-1.341"/><path class="cls-2" d="M5.852,16.471c1.127,3.221,3.461,5.382,6.159,5.382s5.031-2.162,6.158-5.382"/><path class="cls-2" d="M5.194,12.7A1.224,1.224,0,0,0,3.84,14.038c0,1.042.97,1.722,1.753,1.156"/><path class="cls-2" d="M6.011,16.416l3.912-1.558A5.656,5.656,0,0,1,12,14.416h.025a5.656,5.656,0,0,1,2.075.442l3.913,1.558"/><path class="cls-2" d="M9.29,9.663a15.512,15.512,0,0,0-2.822.7l-1.221.475"/><path class="cls-2" d="M18.783,10.993a13.75,13.75,0,0,0-4.05-1.332"/><circle class="cls-2" cx="12.011" cy="8.416" r="3"/></svg>