<?xml version="1.0" ?><svg data-name="Layer 1" id="Layer_1" viewBox="0 0 24 24" xmlns="http://www.w3.org/2000/svg"><defs><style>.cls-1,.cls-2{fill:none;stroke:#000;stroke-linecap:round;}.cls-1{stroke-miterlimit:10;}.cls-2{stroke-linejoin:round;}</style></defs><title/><rect class="cls-1" height="8.746" rx="1" transform="matrix(0.407, -0.914, 0.914, 0.407, -8.506, 14.716)" width="2.186" x="5.984" y="9.534"/><rect class="cls-1" height="8.746" rx="1" transform="translate(2.079 13.039) rotate(-66)" width="2.186" x="9.986" y="0.546"/><rect class="cls-1" height="6.559" transform="translate(-3.214 13.878) rotate(-66)" width="7.652" x="5.252" y="6.133"/><path class="cls-1" d="M14.017,10.415l7.249,2.2a1.093,1.093,0,0,1,.681,1.491l-.771,1.732a1.093,1.093,0,0,1-1.564.491l-6.484-3.915"/><path class="cls-2" d="M3.753,21.474l.773-2.316a1,1,0,0,1,.948-.684h5.559a1,1,0,0,1,.948.684l.772,2.316"/><line class="cls-2" x1="2.753" x2="13.753" y1="21.5" y2="21.5"/></svg>