<?xml version="1.0" ?><svg preserveAspectRatio="xMidYMid" version="1.1" viewBox="0 0 24 24" xmlns="http://www.w3.org/2000/svg"><g fill="none" stroke="#000" stroke-linecap="round" stroke-linejoin="round" stroke-width="1"><path d="M16.493 3.97l0 0c4.37 2.48 5.91 8.04 3.42 12.41 -2.49 4.37-8.05 5.91-12.42 3.42 -4.38-2.49-5.92-8.05-3.43-12.42 .92-1.64 2.33-2.94 4.02-3.74"/><path d="M8.08 3.67c2.875-1.3 5.593-.625 6.61 1.33v0c.8 1.56.19 3.49-1.37 4.3v0c-1.26.64-2.8.16-3.45-1.1v0c-.53-1.01-.13-2.24.87-2.76 0-.01 0-.01 0-.01v0c.57-.3 1.27-.23 1.77.17"/><path d="M10.332 16.9v0c.47.37 1.06.54 1.66.5v0c.59.04 1.19-.13 1.66-.5"/><path d="M7.683 12.56v0c.85-.64 2.02-.64 2.878 0"/><path d="M13.439 12.56v0c.85-.64 2.02-.64 2.878 0"/></g></svg>