<?xml version="1.0" ?><svg data-name="Layer 1" id="Layer_1" viewBox="0 0 24 24" xmlns="http://www.w3.org/2000/svg"><defs><style>.cls-1,.cls-2{fill:none;stroke:#000;stroke-linecap:round;stroke-linejoin:round;}</style></defs><title/><path class="cls-1" d="M10.857,21.344v-3.9c0-1.461-2.078-2.439-3.258-3.3L6.584,13.4a1.117,1.117,0,0,0-1.427.09h0a1.117,1.117,0,0,0-.008,1.618l2.188,2.107"/><path class="cls-1" d="M6.977,21.851a2.9,2.9,0,0,0-1.31-1.8l-1.561-1.1A2.98,2.98,0,0,1,2.857,16.76L2.231,9.07a1.226,1.226,0,0,1,1-1.306h0a1.227,1.227,0,0,1,1.4.867l.707,3.318"/><path class="cls-1" d="M13.143,21.344v-3.9c0-1.461,2.078-2.439,3.258-3.3l1.015-.741a1.117,1.117,0,0,1,1.427.09h0a1.117,1.117,0,0,1,.008,1.618l-2.188,2.107"/><path class="cls-1" d="M17.023,21.851a2.9,2.9,0,0,1,1.31-1.8l1.561-1.1a2.98,2.98,0,0,0,1.249-2.191l.626-7.69a1.226,1.226,0,0,0-1-1.306h0a1.227,1.227,0,0,0-1.4.867l-.707,3.318"/><path class="cls-2" d="M14.64,2.071A2.86,2.86,0,0,0,12,3.845,2.861,2.861,0,0,0,9.356,2.071,3.124,3.124,0,0,0,6.5,5.224c0,3.454,4.767,6.263,5.5,6.263s5.5-2.809,5.5-6.263A3.124,3.124,0,0,0,14.64,2.071Z" data-name=" Path " id="_Path_"/></svg>