<?xml version="1.0" ?><svg data-name="Layer 1" id="Layer_1" viewBox="0 0 24 24" xmlns="http://www.w3.org/2000/svg"><defs><style>.cls-1{fill:none;stroke:#000;stroke-linecap:round;stroke-linejoin:round;}</style></defs><title/><path class="cls-1" d="M19.5,20.5a1,1,0,0,1-1,1H5.5a1,1,0,0,1-1-1V3.5a1,1,0,0,1,1-1h9.023a3.983,3.983,0,0,1,2.386.784,9.261,9.261,0,0,1,1.807,1.807A3.983,3.983,0,0,1,19.5,7.477Z"/><path class="cls-1" d="M15.5,4.5v2h2a2,2,0,0,1,2,2v1"/><path class="cls-1" d="M15.493,18l-.234-.936a.956.956,0,0,0-.77-.712L14.2,16.3a3.564,3.564,0,0,1-1-.326.652.652,0,0,1-.359-.582v-.1a.65.65,0,0,1,.214-.482,3.6,3.6,0,0,0,1.035-2.59A1.984,1.984,0,0,0,12,10a1.984,1.984,0,0,0-2.084,2.22,3.608,3.608,0,0,0,1.035,2.59.647.647,0,0,1,.215.482v.147a.583.583,0,0,1-.362.539,6.66,6.66,0,0,1-1,.326l-.289.048a.956.956,0,0,0-.77.712L8.507,18"/></svg>