<?xml version="1.0" ?><svg data-name="Layer 1" id="Layer_1" viewBox="0 0 24 24" xmlns="http://www.w3.org/2000/svg"><defs><style>.cls-1{fill:none;stroke:#000;stroke-linecap:round;stroke-linejoin:round;}</style></defs><title/><path class="cls-1" d="M12.227,3.719c-1.916-.227-3.2-1.494-2.96-1.947.226-.423,1.346-.286,2.052-.041a4.352,4.352,0,0,1,1.616,1.047,3.689,3.689,0,0,1,.536.71"/><path class="cls-1" d="M18.5,14.5H5c-.828,0-1.5.895-1.5,2h0c0,1.105.672,2,1.5,2H18.5"/><path class="cls-1" d="M20.5,18.5H7c-.828,0-1.5.895-1.5,2h0c0,1.105.672,2,1.5,2H20.5"/><path class="cls-1" d="M16.22,12.918a7.688,7.688,0,0,0,1.9-3.483c.578-2.442-.538-3.939-2.261-4.323a3.431,3.431,0,0,0-1.972.049,4.045,4.045,0,0,0-1.39.794,2.512,2.512,0,0,0-1.36-.914,4.006,4.006,0,0,0-2.009.071c-1.711.433-2.838,1.881-2.261,4.323a7.707,7.707,0,0,0,1.9,3.483"/></svg>