<?xml version="1.0" ?><svg data-name="Layer 1" id="Layer_1" viewBox="0 0 24 24" xmlns="http://www.w3.org/2000/svg"><defs><style>.cls-1{fill:none;stroke:#000;stroke-linecap:round;stroke-linejoin:round;}</style></defs><title/><path class="cls-1" d="M20.5,12.5v4a4,4,0,0,1-4,4h-9a4,4,0,0,1-4-4v-4"/><path class="cls-1" d="M9.5,6.5v-2a1,1,0,0,1,1-1h3a1,1,0,0,1,1,1v2"/><path class="cls-1" d="M13.5,14.413a9.128,9.128,0,0,0,7.538-5.029,2,2,0,0,0-1.8-2.884H4.759a2,2,0,0,0-1.8,2.884A9.128,9.128,0,0,0,10.5,14.413"/><rect class="cls-1" height="5" width="3" x="10.5" y="11.5"/></svg>